<svg xmlns="http://www.w3.org/2000/svg" viewBox="0 0 360 188" width="360" height="188">
  <rect width="360" height="188" rx="10" fill="#0d1117" stroke="#1e293b" stroke-width="1.5"/>

  <!-- 5 Stars -->
  <g fill="#fbbf24">
    <path transform="translate(22,30)" d="M0-8L1.8-2.47L7.61-2.47L2.91.94L4.7 6.47L0 3.06L-4.7 6.47L-2.91.94L-7.61-2.47L-1.8-2.47Z"/>
    <path transform="translate(44,30)" d="M0-8L1.8-2.47L7.61-2.47L2.91.94L4.7 6.47L0 3.06L-4.7 6.47L-2.91.94L-7.61-2.47L-1.8-2.47Z"/>
    <path transform="translate(66,30)" d="M0-8L1.8-2.47L7.61-2.47L2.91.94L4.7 6.47L0 3.06L-4.7 6.47L-2.91.94L-7.61-2.47L-1.8-2.47Z"/>
    <path transform="translate(88,30)" d="M0-8L1.8-2.47L7.61-2.47L2.91.94L4.7 6.47L0 3.06L-4.7 6.47L-2.91.94L-7.61-2.47L-1.8-2.47Z"/>
    <path transform="translate(110,30)" d="M0-8L1.8-2.47L7.61-2.47L2.91.94L4.7 6.47L0 3.06L-4.7 6.47L-2.91.94L-7.61-2.47L-1.8-2.47Z"/>
  </g>

  <!-- Quote -->
  <text x="22" y="62" font-family="-apple-system, BlinkMacSystemFont, 'Segoe UI', sans-serif" font-size="15" fill="#e2e8f0" font-style="italic">"Instrumental in driving discipline</text>
  <text x="22" y="84" font-family="-apple-system, BlinkMacSystemFont, 'Segoe UI', sans-serif" font-size="15" fill="#e2e8f0" font-style="italic">&amp; structure in the LATAM region."</text>

  <!-- Divider -->
  <line x1="22" y1="104" x2="338" y2="104" stroke="#1e293b" stroke-width="1"/>

  <!-- Avatar -->
  <circle cx="40" cy="146" r="18" fill="#1d4ed8"/>
  <text x="40" y="151" font-family="-apple-system, BlinkMacSystemFont, 'Segoe UI', sans-serif" font-size="11" fill="#ffffff" font-weight="700" text-anchor="middle">DC</text>

  <!-- Name and Title -->
  <text x="66" y="140" font-family="-apple-system, BlinkMacSystemFont, 'Segoe UI', sans-serif" font-size="13.5" fill="#ffffff" font-weight="600">Diego Collicchio</text>
  <text x="66" y="157" font-family="-apple-system, BlinkMacSystemFont, 'Segoe UI', sans-serif" font-size="12" fill="#64748b">President Red Bull Brazil / ex-USA</text>
</svg>
