<svg width="707" height="672" viewBox="0 0 707 672" fill="none" xmlns="http://www.w3.org/2000/svg">
<g filter="url(#filter0_d_1686_2391)">
<path d="M6.49982 194V187.864C6.49982 186.121 6.84073 184.341 7.52255 182.523C8.20436 180.705 9.10399 178.991 10.2214 177.381C11.3388 175.771 12.5509 174.426 13.8577 173.347L19.1987 176.5C18.138 178.167 17.2668 179.909 16.585 181.727C15.9221 183.545 15.5907 185.572 15.5907 187.807V194H6.49982ZM20.8464 194V187.864C20.8464 186.121 21.1873 184.341 21.8691 182.523C22.5509 180.705 23.4505 178.991 24.568 177.381C25.6854 175.771 26.8975 174.426 28.2043 173.347L33.5452 176.5C32.4846 178.167 31.6134 179.909 30.9316 181.727C30.2687 183.545 29.9373 185.572 29.9373 187.807V194H20.8464ZM51.2018 175.818H63.3609V216.386C63.3609 220.136 62.5181 223.394 60.8325 226.159C59.1658 228.924 56.8457 231.055 53.8722 232.551C50.8987 234.047 47.4423 234.795 43.5029 234.795C39.9991 234.795 36.8173 234.18 33.9575 232.949C31.1165 231.699 28.8628 229.805 27.1961 227.267C25.5294 224.71 24.7056 221.5 24.7245 217.636H36.9688C37.0067 219.17 37.3192 220.487 37.9063 221.585C38.5124 222.665 39.3362 223.498 40.3779 224.085C41.4385 224.653 42.6885 224.938 44.1279 224.938C45.6431 224.938 46.9215 224.616 47.9631 223.972C49.0237 223.309 49.8287 222.343 50.3779 221.074C50.9272 219.805 51.2018 218.242 51.2018 216.386V175.818ZM82.3597 234H69.1779L89.2631 175.818H105.116L125.173 234H111.991L97.4166 189.114H96.962L82.3597 234ZM81.5359 211.131H112.673V220.733H81.5359V211.131ZM179.64 175.818V234H169.015L143.703 197.381H143.277V234H130.975V175.818H141.771L166.884 212.409H167.396V175.818H179.64ZM188.603 234V175.818H200.905V223.858H225.848V234H188.603ZM283.994 204.909C283.994 211.254 282.792 216.652 280.386 221.102C278 225.553 274.743 228.953 270.614 231.301C266.504 233.631 261.883 234.795 256.75 234.795C251.58 234.795 246.939 233.621 242.83 231.273C238.72 228.924 235.472 225.525 233.085 221.074C230.699 216.623 229.506 211.235 229.506 204.909C229.506 198.564 230.699 193.167 233.085 188.716C235.472 184.265 238.72 180.875 242.83 178.545C246.939 176.197 251.58 175.023 256.75 175.023C261.883 175.023 266.504 176.197 270.614 178.545C274.743 180.875 278 184.265 280.386 188.716C282.792 193.167 283.994 198.564 283.994 204.909ZM271.523 204.909C271.523 200.799 270.907 197.333 269.676 194.511C268.464 191.689 266.75 189.549 264.534 188.091C262.318 186.633 259.724 185.903 256.75 185.903C253.777 185.903 251.182 186.633 248.966 188.091C246.75 189.549 245.027 191.689 243.796 194.511C242.583 197.333 241.977 200.799 241.977 204.909C241.977 209.019 242.583 212.485 243.796 215.307C245.027 218.129 246.75 220.269 248.966 221.727C251.182 223.186 253.777 223.915 256.75 223.915C259.724 223.915 262.318 223.186 264.534 221.727C266.75 220.269 268.464 218.129 269.676 215.307C270.907 212.485 271.523 209.019 271.523 204.909ZM321.523 175.818V234H309.222V175.818H321.523ZM362.007 192.551C361.779 190.259 360.804 188.479 359.08 187.21C357.357 185.941 355.018 185.307 352.063 185.307C350.056 185.307 348.361 185.591 346.978 186.159C345.596 186.708 344.535 187.475 343.796 188.46C343.077 189.445 342.717 190.562 342.717 191.812C342.679 192.854 342.897 193.763 343.37 194.54C343.863 195.316 344.535 195.989 345.387 196.557C346.24 197.106 347.224 197.589 348.342 198.006C349.459 198.403 350.652 198.744 351.921 199.028L357.149 200.278C359.687 200.847 362.016 201.604 364.137 202.551C366.259 203.498 368.096 204.663 369.649 206.045C371.202 207.428 372.404 209.057 373.257 210.932C374.128 212.807 374.573 214.956 374.592 217.381C374.573 220.941 373.664 224.028 371.865 226.642C370.084 229.237 367.509 231.254 364.137 232.693C360.785 234.114 356.741 234.824 352.007 234.824C347.31 234.824 343.219 234.104 339.734 232.665C336.268 231.225 333.56 229.095 331.609 226.273C329.677 223.432 328.664 219.919 328.569 215.733H340.473C340.605 217.684 341.164 219.312 342.149 220.619C343.152 221.907 344.488 222.883 346.154 223.545C347.84 224.189 349.743 224.511 351.865 224.511C353.948 224.511 355.757 224.208 357.291 223.602C358.844 222.996 360.046 222.153 360.899 221.074C361.751 219.994 362.177 218.754 362.177 217.352C362.177 216.045 361.789 214.947 361.012 214.057C360.255 213.167 359.137 212.409 357.66 211.784C356.202 211.159 354.412 210.591 352.291 210.08L345.955 208.489C341.05 207.295 337.177 205.43 334.336 202.892C331.495 200.354 330.084 196.936 330.103 192.636C330.084 189.114 331.022 186.036 332.916 183.403C334.829 180.771 337.452 178.716 340.785 177.239C344.118 175.761 347.906 175.023 352.149 175.023C356.467 175.023 360.236 175.761 363.455 177.239C366.694 178.716 369.213 180.771 371.012 183.403C372.812 186.036 373.74 189.085 373.796 192.551H362.007ZM409.01 234H395.828L415.913 175.818H431.766L451.823 234H438.641L424.067 189.114H423.612L409.01 234ZM408.186 211.131H439.323V220.733H408.186V211.131ZM506.29 175.818V234H495.665L470.353 197.381H469.926V234H457.625V175.818H468.421L493.534 212.409H494.046V175.818H506.29ZM60.6191 388.909C60.6191 395.254 59.4165 400.652 57.0112 405.102C54.6248 409.553 51.3672 412.953 47.2384 415.301C43.1286 417.631 38.5074 418.795 33.3748 418.795C28.2043 418.795 23.5642 417.621 19.4543 415.273C15.3445 412.924 12.0964 409.525 9.71005 405.074C7.32368 400.623 6.1305 395.235 6.1305 388.909C6.1305 382.564 7.32368 377.167 9.71005 372.716C12.0964 368.265 15.3445 364.875 19.4543 362.545C23.5642 360.197 28.2043 359.023 33.3748 359.023C38.5074 359.023 43.1286 360.197 47.2384 362.545C51.3672 364.875 54.6248 368.265 57.0112 372.716C59.4165 377.167 60.6191 382.564 60.6191 388.909ZM48.1475 388.909C48.1475 384.799 47.532 381.333 46.3009 378.511C45.0888 375.689 43.3748 373.549 41.1589 372.091C38.943 370.633 36.3483 369.903 33.3748 369.903C30.4013 369.903 27.8066 370.633 25.5907 372.091C23.3748 373.549 21.6513 375.689 20.4202 378.511C19.2081 381.333 18.6021 384.799 18.6021 388.909C18.6021 393.019 19.2081 396.485 20.4202 399.307C21.6513 402.129 23.3748 404.269 25.5907 405.727C27.8066 407.186 30.4013 407.915 33.3748 407.915C36.3483 407.915 38.943 407.186 41.1589 405.727C43.3748 404.269 45.0888 402.129 46.3009 399.307C47.532 396.485 48.1475 393.019 48.1475 388.909ZM68.5313 418V359.818H107.054V369.96H80.8325V383.824H104.498V393.966H80.8325V418H68.5313ZM141.473 418H128.291L148.376 359.818H164.228L184.285 418H171.103L156.529 373.114H156.075L141.473 418ZM140.649 395.131H171.785V404.733H140.649V395.131ZM207.403 359.818H222.574L238.597 398.909H239.278L255.301 359.818H270.472V418H258.54V380.131H258.057L243 417.716H234.875L219.818 379.989H219.335V418H207.403V359.818ZM289.435 418H276.253L296.338 359.818H312.191L332.248 418H319.066L304.492 373.114H304.037L289.435 418ZM288.611 395.131H319.748V404.733H288.611V395.131ZM338.05 418V359.818H361.005C365.399 359.818 369.149 360.604 372.255 362.176C375.38 363.729 377.757 365.936 379.386 368.795C381.033 371.636 381.857 374.979 381.857 378.824C381.857 382.687 381.024 386.011 379.357 388.795C377.691 391.561 375.276 393.682 372.113 395.159C368.969 396.636 365.162 397.375 360.692 397.375H345.323V387.489H358.704C361.052 387.489 363.003 387.167 364.556 386.523C366.109 385.879 367.264 384.913 368.022 383.625C368.798 382.337 369.187 380.737 369.187 378.824C369.187 376.892 368.798 375.263 368.022 373.938C367.264 372.612 366.1 371.608 364.528 370.926C362.975 370.225 361.014 369.875 358.647 369.875H350.352V418H338.05ZM369.471 391.523L383.931 418H370.352L356.204 391.523H369.471ZM389.35 418V359.818H401.652V385.472H402.419L423.356 359.818H438.1L416.509 385.869L438.356 418H423.64L407.703 394.08L401.652 401.466V418H389.35ZM443.307 418V359.818H482.511V369.96H455.608V383.824H480.494V393.966H455.608V407.858H482.625V418H443.307ZM488.875 369.96V359.818H536.659V369.96H518.847V418H506.688V369.96H488.875ZM555.63 359.818V418H543.328V359.818H555.63ZM613.215 359.818V418H602.59L577.278 381.381H576.851V418H564.55V359.818H575.346L600.459 396.409H600.971V359.818H613.215ZM660.758 378.625C660.36 377.242 659.802 376.021 659.082 374.96C658.362 373.881 657.482 372.972 656.44 372.233C655.417 371.475 654.243 370.898 652.917 370.5C651.61 370.102 650.161 369.903 648.571 369.903C645.597 369.903 642.983 370.642 640.73 372.119C638.495 373.597 636.752 375.746 635.502 378.568C634.252 381.371 633.627 384.799 633.627 388.852C633.627 392.905 634.243 396.352 635.474 399.193C636.705 402.034 638.447 404.203 640.701 405.699C642.955 407.176 645.616 407.915 648.684 407.915C651.468 407.915 653.845 407.422 655.815 406.438C657.804 405.434 659.319 404.023 660.36 402.205C661.421 400.386 661.951 398.237 661.951 395.756L664.451 396.125H649.451V386.864H673.798V394.193C673.798 399.307 672.718 403.701 670.559 407.375C668.4 411.03 665.427 413.852 661.639 415.841C657.851 417.811 653.514 418.795 648.627 418.795C643.173 418.795 638.381 417.593 634.252 415.188C630.124 412.763 626.904 409.326 624.593 404.875C622.302 400.405 621.156 395.102 621.156 388.966C621.156 384.25 621.838 380.045 623.201 376.352C624.584 372.64 626.516 369.496 628.997 366.92C631.478 364.345 634.366 362.384 637.661 361.04C640.957 359.695 644.527 359.023 648.372 359.023C651.667 359.023 654.735 359.506 657.576 360.472C660.417 361.419 662.936 362.763 665.133 364.506C667.349 366.248 669.158 368.322 670.559 370.727C671.961 373.114 672.86 375.746 673.258 378.625H660.758ZM27.7782 510H7.15323V451.818H27.9487C33.8009 451.818 38.8388 452.983 43.0623 455.312C47.2858 457.623 50.5339 460.947 52.8066 465.284C55.0983 469.621 56.2441 474.811 56.2441 480.852C56.2441 486.913 55.0983 492.121 52.8066 496.477C50.5339 500.833 47.2668 504.176 43.0055 506.506C38.763 508.835 33.6873 510 27.7782 510ZM19.4543 499.46H27.2668C30.9032 499.46 33.9619 498.816 36.443 497.528C38.943 496.222 40.818 494.205 42.068 491.477C43.3369 488.731 43.9714 485.189 43.9714 480.852C43.9714 476.553 43.3369 473.04 42.068 470.312C40.818 467.585 38.9524 465.578 36.4714 464.29C33.9903 463.002 30.9316 462.358 27.2952 462.358H19.4543V499.46ZM76.4575 451.818V510H64.1563V451.818H76.4575ZM85.3782 510V451.818H108.333C112.727 451.818 116.477 452.604 119.583 454.176C122.708 455.729 125.085 457.936 126.714 460.795C128.361 463.636 129.185 466.979 129.185 470.824C129.185 474.687 128.352 478.011 126.685 480.795C125.019 483.561 122.604 485.682 119.441 487.159C116.297 488.636 112.49 489.375 108.021 489.375H92.6509V479.489H106.032C108.38 479.489 110.331 479.167 111.884 478.523C113.437 477.879 114.593 476.913 115.35 475.625C116.127 474.337 116.515 472.737 116.515 470.824C116.515 468.892 116.127 467.263 115.35 465.938C114.593 464.612 113.428 463.608 111.856 462.926C110.303 462.225 108.343 461.875 105.975 461.875H97.6793V510H85.3782ZM116.799 483.523L131.259 510H117.68L103.532 483.523H116.799ZM136.678 510V451.818H175.883V461.96H148.98V475.824H173.866V485.966H148.98V499.858H175.997V510H136.678ZM235.798 472.188H223.355C223.128 470.578 222.664 469.148 221.963 467.898C221.262 466.629 220.362 465.549 219.264 464.659C218.166 463.769 216.897 463.087 215.457 462.614C214.037 462.14 212.493 461.903 210.827 461.903C207.815 461.903 205.192 462.652 202.957 464.148C200.722 465.625 198.989 467.784 197.758 470.625C196.527 473.447 195.912 476.875 195.912 480.909C195.912 485.057 196.527 488.542 197.758 491.364C199.008 494.186 200.751 496.316 202.986 497.756C205.22 499.195 207.806 499.915 210.741 499.915C212.389 499.915 213.914 499.697 215.315 499.261C216.736 498.826 217.995 498.191 219.094 497.358C220.192 496.506 221.101 495.473 221.821 494.261C222.559 493.049 223.071 491.667 223.355 490.114L235.798 490.17C235.476 492.841 234.671 495.417 233.383 497.898C232.114 500.36 230.4 502.566 228.241 504.517C226.101 506.449 223.544 507.983 220.571 509.119C217.616 510.237 214.273 510.795 210.542 510.795C205.353 510.795 200.713 509.621 196.622 507.273C192.55 504.924 189.33 501.525 186.963 497.074C184.614 492.623 183.44 487.235 183.44 480.909C183.44 474.564 184.633 469.167 187.02 464.716C189.406 460.265 192.645 456.875 196.736 454.545C200.827 452.197 205.429 451.023 210.542 451.023C213.914 451.023 217.039 451.496 219.917 452.443C222.815 453.39 225.381 454.773 227.616 456.591C229.851 458.39 231.669 460.597 233.071 463.21C234.491 465.824 235.4 468.816 235.798 472.188ZM241.203 461.96V451.818H288.987V461.96H271.175V510H259.016V461.96H241.203ZM346.466 480.909C346.466 487.254 345.264 492.652 342.858 497.102C340.472 501.553 337.214 504.953 333.086 507.301C328.976 509.631 324.355 510.795 319.222 510.795C314.051 510.795 309.411 509.621 305.301 507.273C301.192 504.924 297.944 501.525 295.557 497.074C293.171 492.623 291.978 487.235 291.978 480.909C291.978 474.564 293.171 469.167 295.557 464.716C297.944 460.265 301.192 456.875 305.301 454.545C309.411 452.197 314.051 451.023 319.222 451.023C324.355 451.023 328.976 452.197 333.086 454.545C337.214 456.875 340.472 460.265 342.858 464.716C345.264 469.167 346.466 474.564 346.466 480.909ZM333.995 480.909C333.995 476.799 333.379 473.333 332.148 470.511C330.936 467.689 329.222 465.549 327.006 464.091C324.79 462.633 322.195 461.903 319.222 461.903C316.248 461.903 313.654 462.633 311.438 464.091C309.222 465.549 307.498 467.689 306.267 470.511C305.055 473.333 304.449 476.799 304.449 480.909C304.449 485.019 305.055 488.485 306.267 491.307C307.498 494.129 309.222 496.269 311.438 497.727C313.654 499.186 316.248 499.915 319.222 499.915C322.195 499.915 324.79 499.186 327.006 497.727C329.222 496.269 330.936 494.129 332.148 491.307C333.379 488.485 333.995 485.019 333.995 480.909ZM354.379 510V451.818H377.333C381.727 451.818 385.477 452.604 388.583 454.176C391.708 455.729 394.085 457.936 395.714 460.795C397.361 463.636 398.185 466.979 398.185 470.824C398.185 474.687 397.352 478.011 395.685 480.795C394.019 483.561 391.604 485.682 388.441 487.159C385.297 488.636 381.49 489.375 377.021 489.375H361.651V479.489H375.032C377.38 479.489 379.331 479.167 380.884 478.523C382.437 477.879 383.593 476.913 384.35 475.625C385.127 474.337 385.515 472.737 385.515 470.824C385.515 468.892 385.127 467.263 384.35 465.938C383.593 464.612 382.428 463.608 380.856 462.926C379.303 462.225 377.343 461.875 374.975 461.875H366.68V510H354.379ZM385.799 483.523L400.259 510H386.68L372.532 483.523H385.799ZM412.525 510.739C410.65 510.739 409.04 510.076 407.696 508.75C406.37 507.405 405.707 505.795 405.707 503.92C405.707 502.064 406.37 500.473 407.696 499.148C409.04 497.822 410.65 497.159 412.525 497.159C414.343 497.159 415.934 497.822 417.298 499.148C418.661 500.473 419.343 502.064 419.343 503.92C419.343 505.17 419.021 506.316 418.377 507.358C417.752 508.381 416.928 509.205 415.906 509.83C414.883 510.436 413.756 510.739 412.525 510.739ZM430.253 451.818V457.955C430.253 459.697 429.912 461.477 429.23 463.295C428.567 465.095 427.677 466.799 426.559 468.409C425.442 470 424.22 471.354 422.895 472.472L417.554 469.318C418.501 467.822 419.334 466.165 420.054 464.347C420.792 462.528 421.162 460.417 421.162 458.011V451.818H430.253ZM444.542 451.818V457.955C444.542 459.697 444.202 461.477 443.52 463.295C442.857 465.095 441.967 466.799 440.849 468.409C439.732 470 438.501 471.354 437.156 472.472L431.815 469.318C432.781 467.822 433.624 466.165 434.344 464.347C435.082 462.528 435.452 460.417 435.452 458.011V451.818H444.542ZM5.61914 614V584.909H15.4487C17.7214 584.909 19.5869 585.297 21.0452 586.074C22.5036 586.841 23.5831 587.897 24.2839 589.241C24.9846 590.586 25.335 592.116 25.335 593.83C25.335 595.544 24.9846 597.063 24.2839 598.389C23.5831 599.715 22.5083 600.757 21.0594 601.514C19.6106 602.262 17.7593 602.636 15.5055 602.636H7.55096V599.455H15.3918C16.9449 599.455 18.1949 599.227 19.1418 598.773C20.0983 598.318 20.7896 597.674 21.2157 596.841C21.6513 595.998 21.8691 594.994 21.8691 593.83C21.8691 592.665 21.6513 591.647 21.2157 590.776C20.7801 589.904 20.0841 589.232 19.1276 588.759C18.1712 588.276 16.907 588.034 15.335 588.034H9.14186V614H5.61914ZM19.3123 600.932L26.4714 614H22.3805L15.335 600.932H19.3123ZM32.3982 614H28.705L39.3869 584.909H43.0232L53.705 614H50.0119L41.3187 589.511H41.0914L32.3982 614ZM33.7619 602.636H48.6482V605.761H33.7619V602.636ZM81.3045 584.909V614H77.8954L62.0431 591.159H61.759V614H58.2363V584.909H61.6454L77.5545 607.807H77.8386V584.909H81.3045ZM122.672 584.909V614H119.263L103.411 591.159H103.127V614H99.6035V584.909H103.013L118.922 607.807H119.206V584.909H122.672ZM129.721 614V584.909H147.278V588.034H133.244V597.864H146.369V600.989H133.244V610.875H147.505V614H129.721ZM172.718 584.909H176.241V604.17C176.241 606.159 175.772 607.935 174.835 609.497C173.907 611.05 172.595 612.277 170.9 613.176C169.205 614.066 167.216 614.511 164.934 614.511C162.652 614.511 160.663 614.066 158.968 613.176C157.273 612.277 155.957 611.05 155.019 609.497C154.091 607.935 153.627 606.159 153.627 604.17V584.909H157.15V603.886C157.15 605.307 157.462 606.571 158.087 607.679C158.712 608.777 159.603 609.644 160.758 610.278C161.923 610.903 163.315 611.216 164.934 611.216C166.553 611.216 167.945 610.903 169.11 610.278C170.275 609.644 171.165 608.777 171.781 607.679C172.406 606.571 172.718 605.307 172.718 603.886V584.909ZM206.344 584.909V614H202.935L187.082 591.159H186.798V614H183.276V584.909H186.685L202.594 607.807H202.878V584.909H206.344ZM213.393 614V584.909H230.95V588.034H216.916V597.864H230.041V600.989H216.916V610.875H231.177V614H213.393ZM237.299 614V584.909H247.129C249.401 584.909 251.267 585.297 252.725 586.074C254.184 586.841 255.263 587.897 255.964 589.241C256.665 590.586 257.015 592.116 257.015 593.83C257.015 595.544 256.665 597.063 255.964 598.389C255.263 599.715 254.188 600.757 252.739 601.514C251.291 602.262 249.439 602.636 247.185 602.636H239.231V599.455H247.072C248.625 599.455 249.875 599.227 250.822 598.773C251.778 598.318 252.47 597.674 252.896 596.841C253.331 595.998 253.549 594.994 253.549 593.83C253.549 592.665 253.331 591.647 252.896 590.776C252.46 589.904 251.764 589.232 250.808 588.759C249.851 588.276 248.587 588.034 247.015 588.034H240.822V614H237.299ZM250.992 600.932L258.151 614H254.06L247.015 600.932H250.992Z" fill="white"/>
<path d="M17.1818 325.999H4L24.0852 267.817H39.9375L59.9943 325.999H46.8125L32.2386 281.113H31.7841L17.1818 325.999ZM16.3579 303.13H47.4943V312.732H16.3579V303.13ZM65.7971 325.999V267.817H89.0926C93.3729 267.817 96.943 268.452 99.8028 269.721C102.663 270.99 104.812 272.751 106.252 275.005C107.691 277.24 108.411 279.815 108.411 282.732C108.411 285.005 107.956 287.003 107.047 288.726C106.138 290.431 104.888 291.832 103.297 292.931C101.725 294.01 99.9259 294.777 97.8994 295.232V295.8C100.115 295.895 102.189 296.52 104.121 297.675C106.072 298.83 107.653 300.45 108.865 302.533C110.078 304.597 110.684 307.06 110.684 309.919C110.684 313.007 109.917 315.762 108.382 318.187C106.867 320.592 104.623 322.495 101.65 323.897C98.6759 325.298 95.0112 325.999 90.6551 325.999H65.7971ZM78.0983 315.942H88.1267C91.5547 315.942 94.0547 315.289 95.6267 313.982C97.1987 312.656 97.9846 310.895 97.9846 308.698C97.9846 307.088 97.5964 305.668 96.8199 304.437C96.0434 303.205 94.9354 302.24 93.496 301.539C92.0756 300.838 90.3805 300.488 88.4108 300.488H78.0983V315.942ZM78.0983 292.164H87.2176C88.9032 292.164 90.3994 291.87 91.7062 291.283C93.032 290.677 94.0737 289.825 94.8312 288.726C95.6078 287.628 95.996 286.311 95.996 284.777C95.996 282.675 95.2479 280.98 93.7517 279.692C92.2744 278.404 90.1721 277.76 87.4449 277.76H78.0983V292.164ZM149.05 284.55C148.823 282.258 147.848 280.478 146.124 279.209C144.401 277.94 142.062 277.306 139.107 277.306C137.1 277.306 135.405 277.59 134.022 278.158C132.639 278.707 131.579 279.474 130.84 280.459C130.12 281.444 129.761 282.561 129.761 283.811C129.723 284.853 129.941 285.762 130.414 286.539C130.906 287.315 131.579 287.988 132.431 288.556C133.283 289.105 134.268 289.588 135.386 290.005C136.503 290.402 137.696 290.743 138.965 291.027L144.192 292.277C146.73 292.846 149.06 293.603 151.181 294.55C153.302 295.497 155.139 296.662 156.692 298.044C158.245 299.427 159.448 301.056 160.3 302.931C161.172 304.806 161.617 306.955 161.636 309.38C161.617 312.94 160.708 316.027 158.908 318.641C157.128 321.236 154.552 323.253 151.181 324.692C147.829 326.113 143.785 326.823 139.05 326.823C134.353 326.823 130.262 326.103 126.778 324.664C123.312 323.224 120.603 321.094 118.653 318.272C116.721 315.431 115.708 311.918 115.613 307.732H127.516C127.649 309.683 128.208 311.311 129.192 312.618C130.196 313.906 131.531 314.882 133.198 315.544C134.884 316.188 136.787 316.51 138.908 316.51C140.992 316.51 142.8 316.207 144.334 315.601C145.887 314.995 147.09 314.152 147.942 313.073C148.795 311.993 149.221 310.753 149.221 309.351C149.221 308.044 148.833 306.946 148.056 306.056C147.298 305.166 146.181 304.408 144.704 303.783C143.245 303.158 141.456 302.59 139.334 302.079L132.999 300.488C128.094 299.294 124.221 297.429 121.38 294.891C118.539 292.353 117.128 288.935 117.147 284.635C117.128 281.113 118.066 278.035 119.959 275.402C121.872 272.77 124.495 270.715 127.829 269.238C131.162 267.76 134.95 267.022 139.192 267.022C143.511 267.022 147.28 267.76 150.499 269.238C153.738 270.715 156.257 272.77 158.056 275.402C159.855 278.035 160.783 281.084 160.84 284.55H149.05ZM222.176 296.908C222.176 303.253 220.973 308.651 218.568 313.101C216.181 317.552 212.924 320.952 208.795 323.3C204.685 325.63 200.064 326.794 194.931 326.794C189.761 326.794 185.121 325.62 181.011 323.272C176.901 320.923 173.653 317.524 171.267 313.073C168.88 308.622 167.687 303.234 167.687 296.908C167.687 290.563 168.88 285.166 171.267 280.715C173.653 276.264 176.901 272.874 181.011 270.544C185.121 268.196 189.761 267.022 194.931 267.022C200.064 267.022 204.685 268.196 208.795 270.544C212.924 272.874 216.181 276.264 218.568 280.715C220.973 285.166 222.176 290.563 222.176 296.908ZM209.704 296.908C209.704 292.798 209.089 289.332 207.857 286.51C206.645 283.688 204.931 281.548 202.715 280.09C200.5 278.632 197.905 277.902 194.931 277.902C191.958 277.902 189.363 278.632 187.147 280.09C184.931 281.548 183.208 283.688 181.977 286.51C180.765 289.332 180.159 292.798 180.159 296.908C180.159 301.018 180.765 304.484 181.977 307.306C183.208 310.128 184.931 312.268 187.147 313.726C189.363 315.185 191.958 315.914 194.931 315.914C197.905 315.914 200.5 315.185 202.715 313.726C204.931 312.268 206.645 310.128 207.857 307.306C209.089 304.484 209.704 301.018 209.704 296.908ZM230.088 325.999V267.817H242.389V315.857H267.332V325.999H230.088ZM310.216 267.817H322.517V305.601C322.517 309.844 321.504 313.556 319.477 316.738C317.47 319.919 314.657 322.401 311.04 324.181C307.422 325.942 303.208 326.823 298.398 326.823C293.568 326.823 289.345 325.942 285.727 324.181C282.11 322.401 279.297 319.919 277.29 316.738C275.282 313.556 274.278 309.844 274.278 305.601V267.817H286.58V304.55C286.58 306.766 287.063 308.736 288.028 310.459C289.013 312.183 290.396 313.537 292.176 314.522C293.957 315.507 296.03 315.999 298.398 315.999C300.784 315.999 302.858 315.507 304.619 314.522C306.4 313.537 307.773 312.183 308.739 310.459C309.724 308.736 310.216 306.766 310.216 304.55V267.817ZM329.222 277.959V267.817H377.006V277.959H359.194V325.999H347.034V277.959H329.222ZM383.675 325.999V267.817H422.88V277.959H395.977V291.823H420.863V301.965H395.977V315.857H422.994V325.999H383.675ZM448.775 325.999V267.817H472.071C476.351 267.817 479.921 268.452 482.781 269.721C485.641 270.99 487.791 272.751 489.23 275.005C490.669 277.24 491.389 279.815 491.389 282.732C491.389 285.005 490.934 287.003 490.025 288.726C489.116 290.431 487.866 291.832 486.275 292.931C484.703 294.01 482.904 294.777 480.878 295.232V295.8C483.094 295.895 485.167 296.52 487.099 297.675C489.05 298.83 490.631 300.45 491.844 302.533C493.056 304.597 493.662 307.06 493.662 309.919C493.662 313.007 492.895 315.762 491.361 318.187C489.845 320.592 487.601 322.495 484.628 323.897C481.654 325.298 477.989 325.999 473.633 325.999H448.775ZM461.077 315.942H471.105C474.533 315.942 477.033 315.289 478.605 313.982C480.177 312.656 480.963 310.895 480.963 308.698C480.963 307.088 480.575 305.668 479.798 304.437C479.022 303.205 477.914 302.24 476.474 301.539C475.054 300.838 473.359 300.488 471.389 300.488H461.077V315.942ZM461.077 292.164H470.196C471.881 292.164 473.378 291.87 474.684 291.283C476.01 290.677 477.052 289.825 477.809 288.726C478.586 287.628 478.974 286.311 478.974 284.777C478.974 282.675 478.226 280.98 476.73 279.692C475.253 278.404 473.15 277.76 470.423 277.76H461.077V292.164ZM500.466 325.999V267.817H539.671V277.959H512.767V291.823H537.653V301.965H512.767V315.857H539.784V325.999H500.466ZM558.279 325.999H545.097L565.182 267.817H581.034L601.091 325.999H587.909L573.336 281.113H572.881L558.279 325.999ZM557.455 303.13H588.591V312.732H557.455V303.13ZM637.128 284.55C636.901 282.258 635.926 280.478 634.202 279.209C632.479 277.94 630.14 277.306 627.185 277.306C625.178 277.306 623.483 277.59 622.1 278.158C620.717 278.707 619.657 279.474 618.918 280.459C618.199 281.444 617.839 282.561 617.839 283.811C617.801 284.853 618.019 285.762 618.492 286.539C618.985 287.315 619.657 287.988 620.509 288.556C621.361 289.105 622.346 289.588 623.464 290.005C624.581 290.402 625.774 290.743 627.043 291.027L632.271 292.277C634.808 292.846 637.138 293.603 639.259 294.55C641.38 295.497 643.217 296.662 644.771 298.044C646.324 299.427 647.526 301.056 648.378 302.931C649.25 304.806 649.695 306.955 649.714 309.38C649.695 312.94 648.786 316.027 646.986 318.641C645.206 321.236 642.63 323.253 639.259 324.692C635.907 326.113 631.863 326.823 627.128 326.823C622.432 326.823 618.341 326.103 614.856 324.664C611.39 323.224 608.682 321.094 606.731 318.272C604.799 315.431 603.786 311.918 603.691 307.732H615.594C615.727 309.683 616.286 311.311 617.271 312.618C618.274 313.906 619.61 314.882 621.276 315.544C622.962 316.188 624.865 316.51 626.986 316.51C629.07 316.51 630.878 316.207 632.413 315.601C633.966 314.995 635.168 314.152 636.021 313.073C636.873 311.993 637.299 310.753 637.299 309.351C637.299 308.044 636.911 306.946 636.134 306.056C635.377 305.166 634.259 304.408 632.782 303.783C631.324 303.158 629.534 302.59 627.413 302.079L621.077 300.488C616.172 299.294 612.299 297.429 609.458 294.891C606.617 292.353 605.206 288.935 605.225 284.635C605.206 281.113 606.144 278.035 608.038 275.402C609.95 272.77 612.574 270.715 615.907 269.238C619.24 267.76 623.028 267.022 627.271 267.022C631.589 267.022 635.358 267.76 638.577 269.238C641.816 270.715 644.335 272.77 646.134 275.402C647.933 278.035 648.861 281.084 648.918 284.55H637.128ZM654.572 277.959V267.817H702.356V277.959H684.544V325.999H672.384V277.959H654.572Z" fill="white"/>
<path d="M30.2923 644.094H24.0707C23.9571 643.289 23.7251 642.574 23.3747 641.949C23.0243 641.314 22.5745 640.775 22.0253 640.33C21.476 639.884 20.8415 639.544 20.1218 639.307C19.4116 639.07 18.6398 638.952 17.8065 638.952C16.3008 638.952 14.9893 639.326 13.8718 640.074C12.7544 640.812 11.8879 641.892 11.2724 643.312C10.6569 644.723 10.3491 646.437 10.3491 648.455C10.3491 650.528 10.6569 652.271 11.2724 653.682C11.8974 655.093 12.7686 656.158 13.8861 656.878C15.0035 657.598 16.2961 657.957 17.7639 657.957C18.5878 657.957 19.3501 657.848 20.0508 657.631C20.7611 657.413 21.3908 657.096 21.94 656.679C22.4893 656.253 22.9438 655.737 23.3037 655.131C23.673 654.525 23.9287 653.833 24.0707 653.057L30.2923 653.085C30.1313 654.42 29.7289 655.708 29.0849 656.949C28.4504 658.18 27.5934 659.283 26.5139 660.259C25.4438 661.224 24.1654 661.991 22.6787 662.56C21.2014 663.118 19.53 663.398 17.6645 663.398C15.0698 663.398 12.7497 662.811 10.7042 661.636C8.6682 660.462 7.05835 658.762 5.87464 656.537C4.7004 654.312 4.11328 651.617 4.11328 648.455C4.11328 645.282 4.70987 642.583 5.90305 640.358C7.09623 638.133 8.71555 636.437 10.7611 635.273C12.8065 634.098 15.1076 633.511 17.6645 633.511C19.3501 633.511 20.9126 633.748 22.352 634.222C23.8008 634.695 25.084 635.386 26.2014 636.295C27.3188 637.195 28.2279 638.298 28.9287 639.605C29.6389 640.912 30.0934 642.408 30.2923 644.094ZM34.7028 663V633.909H46.18C48.377 633.909 50.252 634.302 51.805 635.088C53.3675 635.865 54.5559 636.968 55.3703 638.398C56.1942 639.818 56.6062 641.49 56.6062 643.412C56.6062 645.344 56.1896 647.006 55.3562 648.398C54.5229 649.78 53.3155 650.841 51.7341 651.58C50.1621 652.318 48.2587 652.688 46.0238 652.688H38.3391V647.744H45.0294C46.2037 647.744 47.1791 647.583 47.9557 647.261C48.7322 646.939 49.3097 646.456 49.6885 645.812C50.0768 645.169 50.271 644.368 50.271 643.412C50.271 642.446 50.0768 641.632 49.6885 640.969C49.3097 640.306 48.7273 639.804 47.9414 639.463C47.1648 639.113 46.1847 638.938 45.001 638.938H40.8534V663H34.7028ZM50.4129 649.761L57.6432 663H50.8534L43.7794 649.761H50.4129ZM58.0373 633.909H64.9265L71.5601 646.438H71.844L78.4777 633.909H85.3669L74.7561 652.716V663H68.648V652.716L58.0373 633.909ZM88.7262 663V633.909H100.204C102.41 633.909 104.29 634.33 105.843 635.173C107.396 636.007 108.58 637.167 109.394 638.653C110.218 640.131 110.63 641.835 110.63 643.767C110.63 645.699 110.213 647.403 109.38 648.881C108.547 650.358 107.339 651.509 105.758 652.332C104.186 653.156 102.283 653.568 100.048 653.568H92.7318V648.639H99.0529C100.237 648.639 101.212 648.436 101.979 648.028C102.756 647.612 103.334 647.039 103.712 646.31C104.101 645.571 104.295 644.723 104.295 643.767C104.295 642.801 104.101 641.958 103.712 641.239C103.334 640.509 102.756 639.946 101.979 639.548C101.203 639.141 100.218 638.938 99.0245 638.938H94.8767V663H88.7262ZM113.517 638.98V633.909H137.409V638.98H128.503V663H122.423V638.98H113.517ZM166.749 648.455C166.749 651.627 166.147 654.326 164.945 656.551C163.752 658.777 162.123 660.476 160.058 661.651C158.003 662.815 155.693 663.398 153.127 663.398C150.541 663.398 148.221 662.811 146.166 661.636C144.111 660.462 142.487 658.762 141.294 656.537C140.101 654.312 139.504 651.617 139.504 648.455C139.504 645.282 140.101 642.583 141.294 640.358C142.487 638.133 144.111 636.437 146.166 635.273C148.221 634.098 150.541 633.511 153.127 633.511C155.693 633.511 158.003 634.098 160.058 635.273C162.123 636.437 163.752 638.133 164.945 640.358C166.147 642.583 166.749 645.282 166.749 648.455ZM160.513 648.455C160.513 646.4 160.205 644.667 159.59 643.256C158.984 641.845 158.127 640.775 157.019 640.045C155.911 639.316 154.613 638.952 153.127 638.952C151.64 638.952 150.342 639.316 149.234 640.045C148.127 640.775 147.265 641.845 146.649 643.256C146.043 644.667 145.74 646.4 145.74 648.455C145.74 650.509 146.043 652.242 146.649 653.653C147.265 655.064 148.127 656.134 149.234 656.864C150.342 657.593 151.64 657.957 153.127 657.957C154.613 657.957 155.911 657.593 157.019 656.864C158.127 656.134 158.984 655.064 159.59 653.653C160.205 652.242 160.513 650.509 160.513 648.455ZM180.563 663V633.909H192.21C194.35 633.909 196.136 634.226 197.565 634.861C198.995 635.495 200.07 636.376 200.79 637.503C201.51 638.62 201.869 639.908 201.869 641.366C201.869 642.503 201.642 643.502 201.188 644.364C200.733 645.216 200.108 645.917 199.313 646.466C198.527 647.006 197.627 647.389 196.614 647.616V647.901C197.722 647.948 198.759 648.26 199.725 648.838C200.7 649.416 201.491 650.225 202.097 651.267C202.703 652.299 203.006 653.53 203.006 654.96C203.006 656.504 202.622 657.882 201.855 659.094C201.098 660.296 199.975 661.248 198.489 661.949C197.002 662.65 195.17 663 192.992 663H180.563ZM186.713 657.972H191.727C193.441 657.972 194.691 657.645 195.477 656.991C196.263 656.329 196.656 655.448 196.656 654.349C196.656 653.545 196.462 652.834 196.074 652.219C195.686 651.603 195.132 651.12 194.412 650.77C193.702 650.42 192.854 650.244 191.869 650.244H186.713V657.972ZM186.713 646.082H191.273C192.116 646.082 192.864 645.936 193.517 645.642C194.18 645.339 194.701 644.913 195.08 644.364C195.468 643.814 195.662 643.156 195.662 642.389C195.662 641.338 195.288 640.491 194.54 639.847C193.801 639.203 192.75 638.881 191.386 638.881H186.713V646.082ZM212.022 663H205.431L215.474 633.909H223.4L233.428 663H226.837L219.551 640.557H219.323L212.022 663ZM211.61 651.565H227.178V656.366H211.61V651.565ZM261.262 633.909V663H255.95L243.293 644.69H243.08V663H236.93V633.909H242.328L254.884 652.205H255.14V633.909H261.262ZM265.236 638.98V633.909H289.128V638.98H280.222V663H274.142V638.98H265.236ZM293.063 663V633.909H312.665V638.98H299.213V645.912H311.656V650.983H299.213V657.929H312.722V663H293.063ZM317.555 663V633.909H329.032C331.229 633.909 333.104 634.302 334.657 635.088C336.22 635.865 337.408 636.968 338.222 638.398C339.046 639.818 339.458 641.49 339.458 643.412C339.458 645.344 339.042 647.006 338.208 648.398C337.375 649.78 336.167 650.841 334.586 651.58C333.014 652.318 331.111 652.688 328.876 652.688H321.191V647.744H327.881C329.056 647.744 330.031 647.583 330.808 647.261C331.584 646.939 332.162 646.456 332.541 645.812C332.929 645.169 333.123 644.368 333.123 643.412C333.123 642.446 332.929 641.632 332.541 640.969C332.162 640.306 331.579 639.804 330.793 639.463C330.017 639.113 329.037 638.938 327.853 638.938H323.705V663H317.555ZM333.265 649.761L340.495 663H333.705L326.631 649.761H333.265Z" fill="white"/>
</g>
<g filter="url(#filter1_d_1686_2391)">
<path d="M55.6702 4.38998C56.1192 3.00802 58.0743 3.00802 58.5234 4.38999L69.1083 36.967C69.3091 37.585 69.885 38.0035 70.5349 38.0035H104.788C106.241 38.0035 106.846 39.8629 105.67 40.717L77.9584 60.8507C77.4326 61.2327 77.2127 61.9097 77.4135 62.5277L87.9984 95.1048C88.4474 96.4867 86.8657 97.6359 85.6901 96.7818L57.9785 76.6481C57.4527 76.2661 56.7408 76.2661 56.2151 76.6481L28.5034 96.7818C27.3279 97.6359 25.7461 96.4867 26.1952 95.1048L36.7801 62.5277C36.9809 61.9097 36.7609 61.2327 36.2352 60.8507L8.52354 40.717C7.34797 39.8629 7.95213 38.0035 9.40522 38.0035H43.6587C44.3085 38.0035 44.8845 37.585 45.0853 36.967L55.6702 4.38998Z" fill="#FBBC04"/>
<path d="M165.67 4.38998C166.119 3.00802 168.074 3.00802 168.523 4.38999L179.108 36.967C179.309 37.585 179.885 38.0035 180.535 38.0035H214.788C216.241 38.0035 216.846 39.8629 215.67 40.717L187.958 60.8507C187.433 61.2327 187.213 61.9097 187.413 62.5277L197.998 95.1048C198.447 96.4867 196.866 97.6359 195.69 96.7818L167.978 76.6481C167.453 76.2661 166.741 76.2661 166.215 76.6481L138.503 96.7818C137.328 97.6359 135.746 96.4867 136.195 95.1048L146.78 62.5277C146.981 61.9097 146.761 61.2327 146.235 60.8507L118.523 40.717C117.348 39.8629 117.952 38.0035 119.405 38.0035H153.659C154.308 38.0035 154.884 37.585 155.085 36.967L165.67 4.38998Z" fill="#FBBC04"/>
<path d="M385.67 4.38998C386.119 3.00802 388.074 3.00802 388.523 4.38999L399.108 36.967C399.309 37.585 399.885 38.0035 400.535 38.0035H434.788C436.241 38.0035 436.846 39.8629 435.67 40.717L407.958 60.8507C407.433 61.2327 407.213 61.9097 407.413 62.5277L417.998 95.1048C418.447 96.4867 416.866 97.6359 415.69 96.7818L387.978 76.6481C387.453 76.2661 386.741 76.2661 386.215 76.6481L358.503 96.7818C357.328 97.6359 355.746 96.4867 356.195 95.1048L366.78 62.5277C366.981 61.9097 366.761 61.2327 366.235 60.8507L338.523 40.717C337.348 39.8629 337.952 38.0035 339.405 38.0035H373.659C374.308 38.0035 374.884 37.585 375.085 36.967L385.67 4.38998Z" fill="#FBBC04"/>
<path d="M275.67 4.38998C276.119 3.00802 278.074 3.00802 278.523 4.38999L289.108 36.967C289.309 37.585 289.885 38.0035 290.535 38.0035H324.788C326.241 38.0035 326.846 39.8629 325.67 40.717L297.958 60.8507C297.433 61.2327 297.213 61.9097 297.413 62.5277L307.998 95.1048C308.447 96.4867 306.866 97.6359 305.69 96.7818L277.978 76.6481C277.453 76.2661 276.741 76.2661 276.215 76.6481L248.503 96.7818C247.328 97.6359 245.746 96.4867 246.195 95.1048L256.78 62.5277C256.981 61.9097 256.761 61.2327 256.235 60.8507L228.523 40.717C227.348 39.8629 227.952 38.0035 229.405 38.0035H263.659C264.308 38.0035 264.884 37.585 265.085 36.967L275.67 4.38998Z" fill="#FBBC04"/>
<path d="M495.67 4.38998C496.119 3.00802 498.074 3.00802 498.523 4.38999L509.108 36.967C509.309 37.585 509.885 38.0035 510.535 38.0035H544.788C546.241 38.0035 546.846 39.8629 545.67 40.717L517.958 60.8507C517.433 61.2327 517.213 61.9097 517.413 62.5277L527.998 95.1048C528.447 96.4867 526.866 97.6359 525.69 96.7818L497.978 76.6481C497.453 76.2661 496.741 76.2661 496.215 76.6481L468.503 96.7818C467.328 97.6359 465.746 96.4867 466.195 95.1048L476.78 62.5277C476.981 61.9097 476.761 61.2327 476.235 60.8507L448.523 40.717C447.348 39.8629 447.952 38.0035 449.405 38.0035H483.659C484.308 38.0035 484.884 37.585 485.085 36.967L495.67 4.38998Z" fill="#FBBC04"/>
</g>
<defs>
<filter id="filter0_d_1686_2391" x="0" y="173.347" width="706.356" height="498.051" filterUnits="userSpaceOnUse" color-interpolation-filters="sRGB">
<feFlood flood-opacity="0" result="BackgroundImageFix"/>
<feColorMatrix in="SourceAlpha" type="matrix" values="0 0 0 0 0 0 0 0 0 0 0 0 0 0 0 0 0 0 127 0" result="hardAlpha"/>
<feOffset dy="4"/>
<feGaussianBlur stdDeviation="2"/>
<feComposite in2="hardAlpha" operator="out"/>
<feColorMatrix type="matrix" values="0 0 0 0 0 0 0 0 0 0 0 0 0 0 0 0 0 0 0.25 0"/>
<feBlend mode="normal" in2="BackgroundImageFix" result="effect1_dropShadow_1686_2391"/>
<feBlend mode="normal" in="SourceGraphic" in2="effect1_dropShadow_1686_2391" result="shape"/>
</filter>
<filter id="filter1_d_1686_2391" x="3.90234" y="3.35352" width="546.389" height="103.721" filterUnits="userSpaceOnUse" color-interpolation-filters="sRGB">
<feFlood flood-opacity="0" result="BackgroundImageFix"/>
<feColorMatrix in="SourceAlpha" type="matrix" values="0 0 0 0 0 0 0 0 0 0 0 0 0 0 0 0 0 0 127 0" result="hardAlpha"/>
<feOffset dy="6"/>
<feGaussianBlur stdDeviation="2"/>
<feComposite in2="hardAlpha" operator="out"/>
<feColorMatrix type="matrix" values="0 0 0 0 1 0 0 0 0 1 0 0 0 0 1 0 0 0 0.15 0"/>
<feBlend mode="normal" in2="BackgroundImageFix" result="effect1_dropShadow_1686_2391"/>
<feBlend mode="normal" in="SourceGraphic" in2="effect1_dropShadow_1686_2391" result="shape"/>
</filter>
</defs>
</svg>
