<svg width="852" height="706" viewBox="0 0 852 706" fill="none" xmlns="http://www.w3.org/2000/svg">
<g filter="url(#filter0_d_1686_2445)">
<path d="M5.875 204.001V197.865C5.875 196.122 6.21591 194.342 6.89773 192.524C7.57954 190.706 8.47917 188.992 9.59659 187.382C10.714 185.772 11.9261 184.427 13.2329 183.348L18.5739 186.501C17.5132 188.168 16.642 189.91 15.9602 191.728C15.2973 193.546 14.9659 195.573 14.9659 197.808V204.001H5.875ZM20.2216 204.001V197.865C20.2216 196.122 20.5625 194.342 21.2443 192.524C21.9261 190.706 22.8257 188.992 23.9432 187.382C25.0606 185.772 26.2727 184.427 27.5795 183.348L32.9204 186.501C31.8598 188.168 30.9886 189.91 30.3068 191.728C29.6439 193.546 29.3125 195.573 29.3125 197.808V204.001H20.2216ZM51.3795 185.819V244.001H39.0784V185.819H51.3795ZM108.965 185.819V244.001H98.34L73.0275 207.382H72.6014V244.001H60.3003V185.819H71.0957L96.2094 222.41H96.7207V185.819H108.965ZM149.491 202.552C149.264 200.26 148.288 198.48 146.565 197.211C144.841 195.942 142.502 195.308 139.548 195.308C137.54 195.308 135.845 195.592 134.463 196.16C133.08 196.709 132.019 197.476 131.281 198.461C130.561 199.446 130.201 200.563 130.201 201.813C130.163 202.855 130.381 203.764 130.855 204.541C131.347 205.317 132.019 205.99 132.872 206.558C133.724 207.107 134.709 207.59 135.826 208.007C136.944 208.404 138.137 208.745 139.406 209.029L144.633 210.279C147.171 210.848 149.5 211.605 151.622 212.552C153.743 213.499 155.58 214.664 157.133 216.046C158.686 217.429 159.889 219.058 160.741 220.933C161.612 222.808 162.057 224.957 162.076 227.382C162.057 230.942 161.148 234.029 159.349 236.643C157.569 239.238 154.993 241.255 151.622 242.694C148.269 244.115 144.226 244.825 139.491 244.825C134.794 244.825 130.703 244.105 127.218 242.666C123.752 241.226 121.044 239.096 119.093 236.274C117.161 233.433 116.148 229.92 116.053 225.734H127.957C128.089 227.685 128.648 229.313 129.633 230.62C130.637 231.908 131.972 232.884 133.639 233.546C135.324 234.19 137.228 234.512 139.349 234.512C141.432 234.512 143.241 234.209 144.775 233.603C146.328 232.997 147.531 232.154 148.383 231.075C149.235 229.995 149.661 228.755 149.661 227.353C149.661 226.046 149.273 224.948 148.497 224.058C147.739 223.168 146.622 222.41 145.144 221.785C143.686 221.16 141.896 220.592 139.775 220.081L133.44 218.49C128.535 217.296 124.661 215.431 121.821 212.893C118.98 210.355 117.569 206.937 117.588 202.637C117.569 199.115 118.506 196.037 120.4 193.404C122.313 190.772 124.936 188.717 128.269 187.24C131.603 185.762 135.391 185.024 139.633 185.024C143.951 185.024 147.72 185.762 150.94 187.24C154.179 188.717 156.697 190.772 158.497 193.404C160.296 196.037 161.224 199.086 161.281 202.552H149.491ZM166.934 195.961V185.819H214.719V195.961H196.906V244.001H184.747V195.961H166.934ZM221.388 244.001V185.819H244.342C248.736 185.819 252.486 186.605 255.592 188.177C258.717 189.73 261.094 191.937 262.723 194.796C264.371 197.637 265.195 200.98 265.195 204.825C265.195 208.688 264.361 212.012 262.695 214.796C261.028 217.562 258.613 219.683 255.45 221.16C252.306 222.637 248.5 223.376 244.03 223.376H228.661V213.49H242.041C244.39 213.49 246.341 213.168 247.894 212.524C249.447 211.88 250.602 210.914 251.359 209.626C252.136 208.338 252.524 206.738 252.524 204.825C252.524 202.893 252.136 201.264 251.359 199.939C250.602 198.613 249.437 197.609 247.865 196.927C246.312 196.226 244.352 195.876 241.984 195.876H233.689V244.001H221.388ZM252.808 217.524L267.269 244.001H253.689L239.541 217.524H252.808ZM308.625 185.819H320.926V223.603C320.926 227.846 319.913 231.558 317.887 234.74C315.879 237.921 313.067 240.403 309.449 242.183C305.832 243.944 301.618 244.825 296.807 244.825C291.978 244.825 287.754 243.944 284.137 242.183C280.519 240.403 277.707 237.921 275.699 234.74C273.692 231.558 272.688 227.846 272.688 223.603V185.819H284.989V222.552C284.989 224.768 285.472 226.738 286.438 228.461C287.423 230.185 288.805 231.539 290.586 232.524C292.366 233.509 294.44 234.001 296.807 234.001C299.194 234.001 301.267 233.509 303.029 232.524C304.809 231.539 306.182 230.185 307.148 228.461C308.133 226.738 308.625 224.768 308.625 222.552V185.819ZM329.847 185.819H345.018L361.04 224.91H361.722L377.745 185.819H392.915V244.001H380.984V206.132H380.501L365.444 243.717H357.319L342.262 205.99H341.779V244.001H329.847V185.819ZM401.85 244.001V185.819H441.055V195.961H414.152V209.825H439.038V219.967H414.152V233.859H441.169V244.001H401.85ZM498.3 185.819V244.001H487.675L462.362 207.382H461.936V244.001H449.635V185.819H460.43L485.544 222.41H486.055V185.819H498.3ZM505.047 195.961V185.819H552.831V195.961H535.019V244.001H522.859V195.961H505.047ZM562.419 244.001H549.238L569.323 185.819H585.175L605.232 244.001H592.05L577.476 199.115H577.022L562.419 244.001ZM561.596 221.132H592.732V230.734H561.596V221.132ZM611.035 244.001V185.819H623.336V233.859H648.279V244.001H611.035ZM684.842 185.819V244.001H672.541V185.819H684.842ZM742.428 185.819V244.001H731.803L706.49 207.382H706.064V244.001H693.763V185.819H704.558L729.672 222.41H730.183V185.819H742.428ZM27.1534 344.001H6.52841V285.819H27.3239C33.1761 285.819 38.214 286.984 42.4375 289.313C46.661 291.624 49.9091 294.948 52.1818 299.285C54.4735 303.622 55.6193 308.812 55.6193 314.853C55.6193 320.914 54.4735 326.122 52.1818 330.478C49.9091 334.834 46.642 338.177 42.3807 340.507C38.1382 342.836 33.0625 344.001 27.1534 344.001ZM18.8295 333.461H26.642C30.2784 333.461 33.3371 332.817 35.8182 331.529C38.3182 330.223 40.1932 328.206 41.4432 325.478C42.7121 322.732 43.3466 319.19 43.3466 314.853C43.3466 310.554 42.7121 307.041 41.4432 304.313C40.1932 301.586 38.3276 299.579 35.8466 298.291C33.3655 297.003 30.3068 296.359 26.6704 296.359H18.8295V333.461ZM63.5315 344.001V285.819H86.4861C90.88 285.819 94.63 286.605 97.7361 288.177C100.861 289.73 103.238 291.937 104.867 294.796C106.515 297.637 107.338 300.98 107.338 304.825C107.338 308.688 106.505 312.012 104.838 314.796C103.172 317.562 100.757 319.683 97.594 321.16C94.4501 322.637 90.6433 323.376 86.1736 323.376H70.8043V313.49H84.1849C86.5334 313.49 88.4842 313.168 90.0372 312.524C91.5902 311.88 92.7455 310.914 93.5031 309.626C94.2796 308.338 94.6679 306.738 94.6679 304.825C94.6679 302.893 94.2796 301.264 93.5031 299.939C92.7455 298.613 91.5808 297.609 90.0088 296.927C88.4558 296.226 86.4955 295.876 84.1281 295.876H75.8327V344.001H63.5315ZM94.952 317.524L109.412 344.001H95.8327L81.6849 317.524H94.952ZM127.133 285.819V344.001H114.832V285.819H127.133ZM146.565 285.819L160.627 330.024H161.167L175.258 285.819H188.894L168.838 344.001H152.985L132.9 285.819H146.565ZM206.998 285.819V344.001H194.697V285.819H206.998ZM264.584 285.819V344.001H253.959L228.646 307.382H228.22V344.001H215.919V285.819H226.715L251.828 322.41H252.34V285.819H264.584ZM312.127 304.626C311.729 303.243 311.17 302.022 310.451 300.961C309.731 299.882 308.85 298.973 307.809 298.234C306.786 297.476 305.612 296.899 304.286 296.501C302.979 296.103 301.53 295.904 299.939 295.904C296.966 295.904 294.352 296.643 292.098 298.12C289.864 299.598 288.121 301.747 286.871 304.569C285.621 307.372 284.996 310.8 284.996 314.853C284.996 318.906 285.612 322.353 286.843 325.194C288.074 328.035 289.816 330.204 292.07 331.7C294.324 333.177 296.985 333.916 300.053 333.916C302.837 333.916 305.214 333.423 307.184 332.439C309.172 331.435 310.687 330.024 311.729 328.206C312.79 326.387 313.32 324.238 313.32 321.757L315.82 322.126H300.82V312.865H325.167V320.194C325.167 325.308 324.087 329.702 321.928 333.376C319.769 337.031 316.795 339.853 313.007 341.842C309.22 343.812 304.882 344.796 299.996 344.796C294.542 344.796 289.75 343.594 285.621 341.189C281.492 338.764 278.273 335.327 275.962 330.876C273.67 326.406 272.525 321.103 272.525 314.967C272.525 310.251 273.206 306.046 274.57 302.353C275.953 298.641 277.884 295.497 280.365 292.921C282.846 290.346 285.735 288.385 289.03 287.041C292.326 285.696 295.896 285.024 299.74 285.024C303.036 285.024 306.104 285.507 308.945 286.473C311.786 287.42 314.305 288.764 316.502 290.507C318.718 292.249 320.526 294.323 321.928 296.728C323.329 299.115 324.229 301.747 324.627 304.626H312.127ZM371.147 344.001H350.522V285.819H371.318C377.17 285.819 382.208 286.984 386.431 289.313C390.655 291.624 393.903 294.948 396.176 299.285C398.467 303.622 399.613 308.812 399.613 314.853C399.613 320.914 398.467 326.122 396.176 330.478C393.903 334.834 390.636 338.177 386.375 340.507C382.132 342.836 377.056 344.001 371.147 344.001ZM362.823 333.461H370.636C374.272 333.461 377.331 332.817 379.812 331.529C382.312 330.223 384.187 328.206 385.437 325.478C386.706 322.732 387.34 319.19 387.34 314.853C387.34 310.554 386.706 307.041 385.437 304.313C384.187 301.586 382.321 299.579 379.84 298.291C377.359 297.003 374.301 296.359 370.664 296.359H362.823V333.461ZM419.827 285.819V344.001H407.525V285.819H419.827ZM460.31 302.552C460.082 300.26 459.107 298.48 457.384 297.211C455.66 295.942 453.321 295.308 450.367 295.308C448.359 295.308 446.664 295.592 445.281 296.16C443.899 296.709 442.838 297.476 442.1 298.461C441.38 299.446 441.02 300.563 441.02 301.813C440.982 302.855 441.2 303.764 441.673 304.541C442.166 305.317 442.838 305.99 443.69 306.558C444.543 307.107 445.528 307.59 446.645 308.007C447.762 308.404 448.956 308.745 450.225 309.029L455.452 310.279C457.99 310.848 460.319 311.605 462.44 312.552C464.562 313.499 466.399 314.664 467.952 316.046C469.505 317.429 470.707 319.058 471.56 320.933C472.431 322.808 472.876 324.957 472.895 327.382C472.876 330.942 471.967 334.029 470.168 336.643C468.387 339.238 465.812 341.255 462.44 342.694C459.088 344.115 455.045 344.825 450.31 344.825C445.613 344.825 441.522 344.105 438.037 342.666C434.571 341.226 431.863 339.096 429.912 336.274C427.98 333.433 426.967 329.92 426.872 325.734H438.776C438.908 327.685 439.467 329.313 440.452 330.62C441.456 331.908 442.791 332.884 444.457 333.546C446.143 334.19 448.046 334.512 450.168 334.512C452.251 334.512 454.06 334.209 455.594 333.603C457.147 332.997 458.35 332.154 459.202 331.075C460.054 329.995 460.48 328.755 460.48 327.353C460.48 326.046 460.092 324.948 459.315 324.058C458.558 323.168 457.44 322.41 455.963 321.785C454.505 321.16 452.715 320.592 450.594 320.081L444.259 318.49C439.353 317.296 435.48 315.431 432.639 312.893C429.798 310.355 428.387 306.937 428.406 302.637C428.387 299.115 429.325 296.037 431.219 293.404C433.132 290.772 435.755 288.717 439.088 287.24C442.421 285.762 446.209 285.024 450.452 285.024C454.77 285.024 458.539 285.762 461.759 287.24C464.997 288.717 467.516 290.772 469.315 293.404C471.115 296.037 472.043 299.086 472.1 302.552H460.31ZM531.304 306.189H518.861C518.634 304.579 518.17 303.149 517.469 301.899C516.768 300.63 515.869 299.55 514.77 298.66C513.672 297.77 512.403 297.088 510.963 296.615C509.543 296.141 507.999 295.904 506.333 295.904C503.321 295.904 500.698 296.653 498.463 298.149C496.229 299.626 494.496 301.785 493.265 304.626C492.034 307.448 491.418 310.876 491.418 314.91C491.418 319.058 492.034 322.543 493.265 325.365C494.515 328.187 496.257 330.317 498.492 331.757C500.727 333.196 503.312 333.916 506.248 333.916C507.895 333.916 509.42 333.698 510.821 333.262C512.242 332.827 513.501 332.192 514.6 331.359C515.698 330.507 516.607 329.474 517.327 328.262C518.066 327.05 518.577 325.668 518.861 324.115L531.304 324.171C530.982 326.842 530.177 329.418 528.89 331.899C527.621 334.361 525.907 336.567 523.748 338.518C521.607 340.45 519.051 341.984 516.077 343.12C513.123 344.238 509.78 344.796 506.049 344.796C500.859 344.796 496.219 343.622 492.128 341.274C488.056 338.925 484.837 335.526 482.469 331.075C480.121 326.624 478.946 321.236 478.946 314.91C478.946 308.565 480.14 303.168 482.526 298.717C484.912 294.266 488.151 290.876 492.242 288.546C496.333 286.198 500.935 285.024 506.049 285.024C509.42 285.024 512.545 285.497 515.424 286.444C518.321 287.391 520.888 288.774 523.123 290.592C525.357 292.391 527.176 294.598 528.577 297.211C529.998 299.825 530.907 302.817 531.304 306.189ZM551.226 285.819V344.001H538.925V285.819H551.226ZM560.147 344.001V285.819H583.102C587.515 285.819 591.274 286.662 594.38 288.348C597.486 290.014 599.854 292.334 601.482 295.308C603.13 298.262 603.954 301.671 603.954 305.535C603.954 309.399 603.121 312.808 601.454 315.762C599.787 318.717 597.373 321.018 594.21 322.666C591.066 324.313 587.259 325.137 582.789 325.137H568.159V315.279H580.801C583.168 315.279 585.119 314.872 586.653 314.058C588.206 313.224 589.361 312.079 590.119 310.62C590.895 309.143 591.284 307.448 591.284 305.535C591.284 303.603 590.895 301.918 590.119 300.478C589.361 299.02 588.206 297.893 586.653 297.098C585.1 296.283 583.13 295.876 580.744 295.876H572.448V344.001H560.147ZM610.744 344.001V285.819H623.045V333.859H647.988V344.001H610.744ZM667.236 285.819V344.001H654.935V285.819H667.236ZM724.821 285.819V344.001H714.196L688.884 307.382H688.458V344.001H676.157V285.819H686.952L712.066 322.41H712.577V285.819H724.821ZM733.785 344.001V285.819H772.989V295.961H746.086V309.825H770.972V319.967H746.086V333.859H773.103V344.001H733.785ZM816.498 344.853C812.483 344.853 809.017 344.134 806.101 342.694C803.184 341.255 800.94 339.304 799.368 336.842C797.815 334.361 797.038 331.596 797.038 328.546C797.038 326.274 797.493 324.257 798.402 322.495C799.311 320.734 800.58 319.115 802.209 317.637C803.837 316.141 805.731 314.654 807.89 313.177L819.169 305.762C820.627 304.834 821.697 303.859 822.379 302.836C823.061 301.795 823.402 300.668 823.402 299.456C823.402 298.3 822.938 297.23 822.01 296.245C821.082 295.26 819.765 294.778 818.061 294.796C816.925 294.796 815.94 295.052 815.106 295.563C814.273 296.056 813.62 296.709 813.146 297.524C812.692 298.319 812.464 299.209 812.464 300.194C812.464 301.406 812.805 302.637 813.487 303.887C814.169 305.137 815.078 306.463 816.214 307.865C817.351 309.247 818.591 310.743 819.936 312.353L847.521 344.001H834.907L811.896 318.376C810.381 316.653 808.866 314.853 807.351 312.978C805.854 311.084 804.604 309.077 803.601 306.956C802.597 304.815 802.095 302.495 802.095 299.995C802.095 297.173 802.748 294.635 804.055 292.382C805.381 290.128 807.237 288.348 809.623 287.041C812.01 285.715 814.794 285.052 817.976 285.052C821.082 285.052 823.762 285.687 826.015 286.956C828.288 288.206 830.031 289.872 831.243 291.956C832.474 294.02 833.089 296.293 833.089 298.774C833.089 301.52 832.407 304.01 831.044 306.245C829.699 308.461 827.805 310.45 825.362 312.211L813.487 320.762C811.877 321.937 810.684 323.139 809.907 324.37C809.15 325.582 808.771 326.747 808.771 327.865C808.771 329.247 809.112 330.488 809.794 331.586C810.476 332.685 811.442 333.556 812.692 334.2C813.942 334.825 815.409 335.137 817.095 335.137C819.14 335.137 821.157 334.673 823.146 333.745C825.154 332.798 826.972 331.463 828.601 329.74C830.248 327.997 831.565 325.933 832.55 323.546C833.534 321.16 834.027 318.518 834.027 315.62H844.055C844.055 319.181 843.667 322.391 842.89 325.251C842.114 328.092 841.034 330.573 839.652 332.694C838.269 334.796 836.688 336.52 834.907 337.865C834.339 338.224 833.79 338.565 833.26 338.887C832.729 339.209 832.18 339.55 831.612 339.91C829.453 341.653 827.038 342.912 824.368 343.689C821.716 344.465 819.093 344.853 816.498 344.853ZM38.0909 402.552C37.8636 400.26 36.8882 398.48 35.1648 397.211C33.4413 395.942 31.1023 395.308 28.1477 395.308C26.1401 395.308 24.4451 395.592 23.0625 396.16C21.6799 396.709 20.6193 397.476 19.8807 398.461C19.161 399.446 18.8011 400.563 18.8011 401.813C18.7632 402.855 18.981 403.764 19.4545 404.541C19.947 405.317 20.6193 405.99 21.4716 406.558C22.3239 407.107 23.3087 407.59 24.4261 408.007C25.5435 408.404 26.7367 408.745 28.0057 409.029L33.2329 410.279C35.7708 410.848 38.1004 411.605 40.2216 412.552C42.3428 413.499 44.1799 414.664 45.7329 416.046C47.286 417.429 48.4886 419.058 49.3409 420.933C50.2121 422.808 50.6572 424.957 50.6761 427.382C50.6572 430.942 49.7481 434.029 47.9489 436.643C46.1686 439.238 43.5928 441.255 40.2216 442.694C36.8693 444.115 32.8257 444.825 28.0909 444.825C23.3939 444.825 19.303 444.105 15.8182 442.666C12.3523 441.226 9.64394 439.096 7.69318 436.274C5.76136 433.433 4.7481 429.92 4.65341 425.734H16.5568C16.6894 427.685 17.2481 429.313 18.2329 430.62C19.2367 431.908 20.572 432.884 22.2386 433.546C23.9242 434.19 25.8276 434.512 27.9489 434.512C30.0322 434.512 31.8409 434.209 33.375 433.603C34.928 432.997 36.1307 432.154 36.9829 431.075C37.8352 429.995 38.2614 428.755 38.2614 427.353C38.2614 426.046 37.8731 424.948 37.0966 424.058C36.339 423.168 35.2216 422.41 33.7443 421.785C32.286 421.16 30.4962 420.592 28.375 420.081L22.0398 418.49C17.1345 417.296 13.2614 415.431 10.4204 412.893C7.57954 410.355 6.16856 406.937 6.1875 402.637C6.16856 399.115 7.10606 396.037 9 393.404C10.9129 390.772 13.536 388.717 16.8693 387.24C20.2026 385.762 23.9905 385.024 28.2329 385.024C32.5511 385.024 36.3201 385.762 39.5398 387.24C42.7784 388.717 45.2973 390.772 47.0966 393.404C48.8958 396.037 49.8239 399.086 49.8807 402.552H38.0909ZM55.5344 395.961V385.819H103.319V395.961H85.506V444.001H73.3469V395.961H55.5344ZM109.988 444.001V385.819H132.942C137.336 385.819 141.086 386.605 144.192 388.177C147.317 389.73 149.694 391.937 151.323 394.796C152.971 397.637 153.795 400.98 153.795 404.825C153.795 408.688 152.961 412.012 151.295 414.796C149.628 417.562 147.213 419.683 144.05 421.16C140.906 422.637 137.1 423.376 132.63 423.376H117.261V413.49H130.641C132.99 413.49 134.941 413.168 136.494 412.524C138.047 411.88 139.202 410.914 139.959 409.626C140.736 408.338 141.124 406.738 141.124 404.825C141.124 402.893 140.736 401.264 139.959 399.939C139.202 398.613 138.037 397.609 136.465 396.927C134.912 396.226 132.952 395.876 130.584 395.876H122.289V444.001H109.988ZM141.408 417.524L155.869 444.001H142.289L128.141 417.524H141.408ZM197.225 385.819H209.527V423.603C209.527 427.846 208.513 431.558 206.487 434.74C204.479 437.921 201.667 440.403 198.049 442.183C194.432 443.944 190.218 444.825 185.407 444.825C180.578 444.825 176.354 443.944 172.737 442.183C169.119 440.403 166.307 437.921 164.299 434.74C162.292 431.558 161.288 427.846 161.288 423.603V385.819H173.589V422.552C173.589 424.768 174.072 426.738 175.038 428.461C176.023 430.185 177.405 431.539 179.186 432.524C180.966 433.509 183.04 434.001 185.407 434.001C187.794 434.001 189.867 433.509 191.629 432.524C193.409 431.539 194.782 430.185 195.748 428.461C196.733 426.738 197.225 424.768 197.225 422.552V385.819ZM269.782 406.189H257.339C257.112 404.579 256.648 403.149 255.947 401.899C255.246 400.63 254.347 399.55 253.248 398.66C252.15 397.77 250.881 397.088 249.442 396.615C248.021 396.141 246.478 395.904 244.811 395.904C241.8 395.904 239.176 396.653 236.942 398.149C234.707 399.626 232.974 401.785 231.743 404.626C230.512 407.448 229.896 410.876 229.896 414.91C229.896 419.058 230.512 422.543 231.743 425.365C232.993 428.187 234.735 430.317 236.97 431.757C239.205 433.196 241.79 433.916 244.726 433.916C246.373 433.916 247.898 433.698 249.3 433.262C250.72 432.827 251.979 432.192 253.078 431.359C254.176 430.507 255.086 429.474 255.805 428.262C256.544 427.05 257.055 425.668 257.339 424.115L269.782 424.171C269.461 426.842 268.656 429.418 267.368 431.899C266.099 434.361 264.385 436.567 262.226 438.518C260.086 440.45 257.529 441.984 254.555 443.12C251.601 444.238 248.258 444.796 244.527 444.796C239.337 444.796 234.697 443.622 230.606 441.274C226.534 438.925 223.315 435.526 220.947 431.075C218.599 426.624 217.425 421.236 217.425 414.91C217.425 408.565 218.618 403.168 221.004 398.717C223.39 394.266 226.629 390.876 230.72 388.546C234.811 386.198 239.413 385.024 244.527 385.024C247.898 385.024 251.023 385.497 253.902 386.444C256.8 387.391 259.366 388.774 261.601 390.592C263.836 392.391 265.654 394.598 267.055 397.211C268.476 399.825 269.385 402.817 269.782 406.189ZM275.188 395.961V385.819H322.972V395.961H305.159V444.001H293V395.961H275.188ZM365.578 385.819H377.88V423.603C377.88 427.846 376.866 431.558 374.84 434.74C372.832 437.921 370.02 440.403 366.402 442.183C362.785 443.944 358.571 444.825 353.76 444.825C348.931 444.825 344.707 443.944 341.09 442.183C337.472 440.403 334.66 437.921 332.652 434.74C330.645 431.558 329.641 427.846 329.641 423.603V385.819H341.942V422.552C341.942 424.768 342.425 426.738 343.391 428.461C344.376 430.185 345.758 431.539 347.539 432.524C349.319 433.509 351.393 434.001 353.76 434.001C356.147 434.001 358.221 433.509 359.982 432.524C361.762 431.539 363.135 430.185 364.101 428.461C365.086 426.738 365.578 424.768 365.578 422.552V385.819ZM386.8 444.001V385.819H409.755C414.149 385.819 417.899 386.605 421.005 388.177C424.13 389.73 426.507 391.937 428.136 394.796C429.783 397.637 430.607 400.98 430.607 404.825C430.607 408.688 429.774 412.012 428.107 414.796C426.441 417.562 424.026 419.683 420.863 421.16C417.719 422.637 413.912 423.376 409.442 423.376H394.073V413.49H407.454C409.802 413.49 411.753 413.168 413.306 412.524C414.859 411.88 416.014 410.914 416.772 409.626C417.548 408.338 417.937 406.738 417.937 404.825C417.937 402.893 417.548 401.264 416.772 399.939C416.014 398.613 414.85 397.609 413.278 396.927C411.725 396.226 409.764 395.876 407.397 395.876H399.102V444.001H386.8ZM418.221 417.524L432.681 444.001H419.102L404.954 417.524H418.221ZM438.1 444.001V385.819H477.305V395.961H450.402V409.825H475.288V419.967H450.402V433.859H477.419V444.001H438.1ZM515.502 385.819V444.001H503.2V385.819H515.502ZM573.087 385.819V444.001H562.462L537.15 407.382H536.723V444.001H524.422V385.819H535.218L560.331 422.41H560.843V385.819H573.087ZM597.15 395.961V385.819H644.934V395.961H627.122V444.001H614.963V395.961H597.15ZM651.604 444.001V385.819H663.905V409.825H688.876V385.819H701.149V444.001H688.876V419.967H663.905V444.001H651.604ZM710.091 444.001V385.819H749.296V395.961H722.392V409.825H747.278V419.967H722.392V433.859H749.409V444.001H710.091ZM6.52841 544.001V485.819H18.8295V533.859H43.7727V544.001H6.52841ZM62.2318 544.001H49.05L69.1352 485.819H84.9875L105.044 544.001H91.8625L77.2886 499.115H76.8341L62.2318 544.001ZM61.4079 521.132H92.5443V530.734H61.4079V521.132ZM101.522 495.961V485.819H149.306V495.961H131.494V544.001H119.334V495.961H101.522ZM158.894 544.001H145.713L165.798 485.819H181.65L201.707 544.001H188.525L173.951 499.115H173.497L158.894 544.001ZM158.071 521.132H189.207V530.734H158.071V521.132ZM207.51 485.819H222.68L238.703 524.91H239.385L255.407 485.819H270.578V544.001H258.646V506.132H258.163L243.106 543.717H234.981L219.925 505.99H219.442V544.001H207.51V485.819ZM296.828 544.001V485.819H319.783C324.177 485.819 327.927 486.605 331.033 488.177C334.158 489.73 336.535 491.937 338.164 494.796C339.811 497.637 340.635 500.98 340.635 504.825C340.635 508.688 339.802 512.012 338.135 514.796C336.469 517.562 334.054 519.683 330.891 521.16C327.747 522.637 323.94 523.376 319.471 523.376H304.101V513.49H317.482C319.83 513.49 321.781 513.168 323.334 512.524C324.887 511.88 326.043 510.914 326.8 509.626C327.577 508.338 327.965 506.738 327.965 504.825C327.965 502.893 327.577 501.264 326.8 499.939C326.043 498.613 324.878 497.609 323.306 496.927C321.753 496.226 319.793 495.876 317.425 495.876H309.13V544.001H296.828ZM328.249 517.524L342.709 544.001H329.13L314.982 517.524H328.249ZM348.129 544.001V485.819H387.333V495.961H360.43V509.825H385.316V519.967H360.43V533.859H387.447V544.001H348.129ZM434.492 504.626C434.095 503.243 433.536 502.022 432.816 500.961C432.097 499.882 431.216 498.973 430.174 498.234C429.152 497.476 427.977 496.899 426.652 496.501C425.345 496.103 423.896 495.904 422.305 495.904C419.331 495.904 416.718 496.643 414.464 498.12C412.229 499.598 410.487 501.747 409.237 504.569C407.987 507.372 407.362 510.8 407.362 514.853C407.362 518.906 407.977 522.353 409.208 525.194C410.439 528.035 412.182 530.204 414.436 531.7C416.689 533.177 419.35 533.916 422.419 533.916C425.203 533.916 427.58 533.423 429.549 532.439C431.538 531.435 433.053 530.024 434.095 528.206C435.155 526.387 435.686 524.238 435.686 521.757L438.186 522.126H423.186V512.865H447.532V520.194C447.532 525.308 446.453 529.702 444.294 533.376C442.134 537.031 439.161 539.853 435.373 541.842C431.585 543.812 427.248 544.796 422.362 544.796C416.907 544.796 412.116 543.594 407.987 541.189C403.858 538.764 400.638 535.327 398.328 530.876C396.036 526.406 394.89 521.103 394.89 514.967C394.89 510.251 395.572 506.046 396.936 502.353C398.318 498.641 400.25 495.497 402.731 492.921C405.212 490.346 408.1 488.385 411.396 487.041C414.691 485.696 418.261 485.024 422.106 485.024C425.402 485.024 428.47 485.507 431.311 486.473C434.152 487.42 436.67 488.764 438.867 490.507C441.083 492.249 442.892 494.323 444.294 496.728C445.695 499.115 446.595 501.747 446.992 504.626H434.492ZM467.873 485.819V544.001H455.572V485.819H467.873ZM530.26 514.91C530.26 521.255 529.057 526.653 526.652 531.103C524.266 535.554 521.008 538.954 516.879 541.302C512.77 543.632 508.148 544.796 503.016 544.796C497.845 544.796 493.205 543.622 489.095 541.274C484.985 538.925 481.737 535.526 479.351 531.075C476.965 526.624 475.771 521.236 475.771 514.91C475.771 508.565 476.965 503.168 479.351 498.717C481.737 494.266 484.985 490.876 489.095 488.546C493.205 486.198 497.845 485.024 503.016 485.024C508.148 485.024 512.77 486.198 516.879 488.546C521.008 490.876 524.266 494.266 526.652 498.717C529.057 503.168 530.26 508.565 530.26 514.91ZM517.788 514.91C517.788 510.8 517.173 507.334 515.942 504.512C514.73 501.69 513.016 499.55 510.8 498.092C508.584 496.634 505.989 495.904 503.016 495.904C500.042 495.904 497.448 496.634 495.232 498.092C493.016 499.55 491.292 501.69 490.061 504.512C488.849 507.334 488.243 510.8 488.243 514.91C488.243 519.02 488.849 522.486 490.061 525.308C491.292 528.13 493.016 530.27 495.232 531.728C497.448 533.187 500.042 533.916 503.016 533.916C505.989 533.916 508.584 533.187 510.8 531.728C513.016 530.27 514.73 528.13 515.942 525.308C517.173 522.486 517.788 519.02 517.788 514.91ZM586.837 485.819V544.001H576.212L550.9 507.382H550.473V544.001H538.172V485.819H548.968L574.081 522.41H574.593V485.819H586.837ZM602.647 544.74C600.772 544.74 599.162 544.077 597.817 542.751C596.492 541.406 595.829 539.796 595.829 537.921C595.829 536.065 596.492 534.474 597.817 533.149C599.162 531.823 600.772 531.16 602.647 531.16C604.465 531.16 606.056 531.823 607.42 533.149C608.783 534.474 609.465 536.065 609.465 537.921C609.465 539.171 609.143 540.317 608.499 541.359C607.874 542.382 607.05 543.206 606.028 543.831C605.005 544.437 603.878 544.74 602.647 544.74ZM620.375 485.819V491.956C620.375 493.698 620.034 495.478 619.352 497.296C618.689 499.096 617.799 500.8 616.681 502.41C615.564 504.001 614.342 505.355 613.017 506.473L607.676 503.319C608.623 501.823 609.456 500.166 610.176 498.348C610.914 496.529 611.284 494.418 611.284 492.012V485.819H620.375ZM634.664 485.819V491.956C634.664 493.698 634.323 495.478 633.642 497.296C632.979 499.096 632.089 500.8 630.971 502.41C629.854 504.001 628.623 505.355 627.278 506.473L621.937 503.319C622.903 501.823 623.746 500.166 624.465 498.348C625.204 496.529 625.573 494.418 625.573 492.012V485.819H634.664ZM13.9716 648.001H4.99432V618.91H14.3693C17.1913 618.91 19.606 619.492 21.6136 620.657C23.6212 621.813 25.16 623.474 26.2301 625.643C27.3002 627.802 27.8352 630.387 27.8352 633.399C27.8352 636.429 27.2954 639.038 26.2159 641.225C25.1364 643.403 23.5644 645.08 21.5 646.254C19.4356 647.419 16.9261 648.001 13.9716 648.001ZM8.51704 644.876H13.7443C16.1496 644.876 18.143 644.412 19.7244 643.484C21.3059 642.556 22.4848 641.235 23.2614 639.521C24.0379 637.807 24.4261 635.766 24.4261 633.399C24.4261 631.05 24.0426 629.028 23.2756 627.333C22.5085 625.629 21.3627 624.322 19.8381 623.413C18.3134 622.494 16.4148 622.035 14.142 622.035H8.51704V644.876ZM37.267 618.91V648.001H33.7443V618.91H37.267ZM44.3302 648.001V618.91H61.8871V622.035H47.853V631.865H60.978V634.99H47.853V644.876H62.1143V648.001H44.3302ZM88.1229 628.001C87.8104 627.045 87.3984 626.188 86.8871 625.43C86.3852 624.663 85.7838 624.01 85.0831 623.47C84.3918 622.93 83.6058 622.518 82.7251 622.234C81.8444 621.95 80.8785 621.808 79.8274 621.808C78.1039 621.808 76.5367 622.253 75.1257 623.143C73.7147 624.033 72.5926 625.345 71.7592 627.078C70.9259 628.811 70.5092 630.937 70.5092 633.456C70.5092 635.974 70.9306 638.1 71.7734 639.833C72.6162 641.566 73.7573 642.878 75.1967 643.768C76.6361 644.658 78.2554 645.103 80.0547 645.103C81.7213 645.103 83.1891 644.748 84.4581 644.038C85.7365 643.318 86.7308 642.305 87.441 640.998C88.1607 639.682 88.5206 638.134 88.5206 636.353L89.6001 636.581H80.8501V633.456H91.9297V636.581C91.9297 638.976 91.4183 641.06 90.3956 642.831C89.3823 644.601 87.9808 645.974 86.191 646.95C84.4107 647.916 82.3653 648.399 80.0547 648.399C77.4789 648.399 75.2157 647.793 73.2649 646.581C71.3236 645.368 69.8085 643.645 68.7194 641.41C67.6399 639.175 67.1001 636.524 67.1001 633.456C67.1001 631.154 67.4079 629.085 68.0234 627.248C68.6484 625.402 69.5291 623.83 70.6655 622.532C71.8018 621.235 73.1465 620.241 74.6996 619.549C76.2526 618.858 77.9619 618.512 79.8274 618.512C81.3615 618.512 82.7914 618.744 84.1172 619.208C85.4524 619.663 86.6409 620.312 87.6825 621.154C88.7337 621.988 89.6096 622.987 90.3104 624.152C91.0111 625.307 91.4941 626.59 91.7592 628.001H88.1229ZM122.509 633.456C122.509 636.524 121.955 639.175 120.847 641.41C119.739 643.645 118.219 645.368 116.287 646.581C114.355 647.793 112.149 648.399 109.668 648.399C107.187 648.399 104.98 647.793 103.048 646.581C101.117 645.368 99.5966 643.645 98.4886 641.41C97.3807 639.175 96.8267 636.524 96.8267 633.456C96.8267 630.387 97.3807 627.736 98.4886 625.501C99.5966 623.266 101.117 621.543 103.048 620.331C104.98 619.118 107.187 618.512 109.668 618.512C112.149 618.512 114.355 619.118 116.287 620.331C118.219 621.543 119.739 623.266 120.847 625.501C121.955 627.736 122.509 630.387 122.509 633.456ZM119.1 633.456C119.1 630.937 118.678 628.811 117.835 627.078C117.002 625.345 115.87 624.033 114.44 623.143C113.02 622.253 111.429 621.808 109.668 621.808C107.906 621.808 106.311 622.253 104.881 623.143C103.46 624.033 102.329 625.345 101.486 627.078C100.653 628.811 100.236 630.937 100.236 633.456C100.236 635.974 100.653 638.1 101.486 639.833C102.329 641.566 103.46 642.878 104.881 643.768C106.311 644.658 107.906 645.103 109.668 645.103C111.429 645.103 113.02 644.658 114.44 643.768C115.87 642.878 117.002 641.566 117.835 639.833C118.678 638.1 119.1 635.974 119.1 633.456ZM163.091 628.001H159.568C159.36 626.988 158.995 626.098 158.475 625.331C157.963 624.563 157.338 623.92 156.6 623.399C155.87 622.868 155.061 622.471 154.171 622.206C153.28 621.94 152.352 621.808 151.386 621.808C149.625 621.808 148.029 622.253 146.6 623.143C145.179 624.033 144.047 625.345 143.205 627.078C142.371 628.811 141.955 630.937 141.955 633.456C141.955 635.974 142.371 638.1 143.205 639.833C144.047 641.566 145.179 642.878 146.6 643.768C148.029 644.658 149.625 645.103 151.386 645.103C152.352 645.103 153.28 644.971 154.171 644.706C155.061 644.44 155.87 644.047 156.6 643.527C157.338 642.996 157.963 642.348 158.475 641.581C158.995 640.804 159.36 639.914 159.568 638.91H163.091C162.826 640.397 162.343 641.727 161.642 642.902C160.941 644.076 160.07 645.075 159.028 645.899C157.987 646.713 156.817 647.333 155.52 647.76C154.232 648.186 152.854 648.399 151.386 648.399C148.905 648.399 146.699 647.793 144.767 646.581C142.835 645.368 141.315 643.645 140.207 641.41C139.1 639.175 138.546 636.524 138.546 633.456C138.546 630.387 139.1 627.736 140.207 625.501C141.315 623.266 142.835 621.543 144.767 620.331C146.699 619.118 148.905 618.512 151.386 618.512C152.854 618.512 154.232 618.725 155.52 619.152C156.817 619.578 157.987 620.203 159.028 621.027C160.07 621.841 160.941 622.835 161.642 624.01C162.343 625.174 162.826 626.505 163.091 628.001ZM193.329 633.456C193.329 636.524 192.775 639.175 191.667 641.41C190.559 643.645 189.039 645.368 187.107 646.581C185.176 647.793 182.969 648.399 180.488 648.399C178.007 648.399 175.801 647.793 173.869 646.581C171.937 645.368 170.417 643.645 169.309 641.41C168.201 639.175 167.647 636.524 167.647 633.456C167.647 630.387 168.201 627.736 169.309 625.501C170.417 623.266 171.937 621.543 173.869 620.331C175.801 619.118 178.007 618.512 180.488 618.512C182.969 618.512 185.176 619.118 187.107 620.331C189.039 621.543 190.559 623.266 191.667 625.501C192.775 627.736 193.329 630.387 193.329 633.456ZM189.92 633.456C189.92 630.937 189.498 628.811 188.656 627.078C187.822 625.345 186.691 624.033 185.261 623.143C183.84 622.253 182.249 621.808 180.488 621.808C178.727 621.808 177.131 622.253 175.701 623.143C174.281 624.033 173.149 625.345 172.306 627.078C171.473 628.811 171.056 630.937 171.056 633.456C171.056 635.974 171.473 638.1 172.306 639.833C173.149 641.566 174.281 642.878 175.701 643.768C177.131 644.658 178.727 645.103 180.488 645.103C182.249 645.103 183.84 644.658 185.261 643.768C186.691 642.878 187.822 641.566 188.656 639.833C189.498 638.1 189.92 635.974 189.92 633.456ZM199.252 648.001V618.91H202.775V644.876H216.298V648.001H199.252ZM221.752 648.001V618.91H225.275V644.876H238.798V648.001H221.752ZM247.775 618.91V648.001H244.252V618.91H247.775ZM278.247 628.001H274.725C274.516 626.988 274.152 626.098 273.631 625.331C273.119 624.563 272.494 623.92 271.756 623.399C271.027 622.868 270.217 622.471 269.327 622.206C268.437 621.94 267.509 621.808 266.543 621.808C264.781 621.808 263.186 622.253 261.756 623.143C260.335 624.033 259.204 625.345 258.361 627.078C257.528 628.811 257.111 630.937 257.111 633.456C257.111 635.974 257.528 638.1 258.361 639.833C259.204 641.566 260.335 642.878 261.756 643.768C263.186 644.658 264.781 645.103 266.543 645.103C267.509 645.103 268.437 644.971 269.327 644.706C270.217 644.44 271.027 644.047 271.756 643.527C272.494 642.996 273.119 642.348 273.631 641.581C274.152 640.804 274.516 639.914 274.725 638.91H278.247C277.982 640.397 277.499 641.727 276.798 642.902C276.098 644.076 275.226 645.075 274.185 645.899C273.143 646.713 271.974 647.333 270.676 647.76C269.388 648.186 268.011 648.399 266.543 648.399C264.062 648.399 261.855 647.793 259.923 646.581C257.992 645.368 256.472 643.645 255.364 641.41C254.256 639.175 253.702 636.524 253.702 633.456C253.702 630.387 254.256 627.736 255.364 625.501C256.472 623.266 257.992 621.543 259.923 620.331C261.855 619.118 264.062 618.512 266.543 618.512C268.011 618.512 269.388 618.725 270.676 619.152C271.974 619.578 273.143 620.203 274.185 621.027C275.226 621.841 276.098 622.835 276.798 624.01C277.499 625.174 277.982 626.505 278.247 628.001ZM307.349 628.001H303.826C303.618 626.988 303.253 626.098 302.732 625.331C302.221 624.563 301.596 623.92 300.857 623.399C300.128 622.868 299.319 622.471 298.428 622.206C297.538 621.94 296.61 621.808 295.644 621.808C293.883 621.808 292.287 622.253 290.857 623.143C289.437 624.033 288.305 625.345 287.462 627.078C286.629 628.811 286.212 630.937 286.212 633.456C286.212 635.974 286.629 638.1 287.462 639.833C288.305 641.566 289.437 642.878 290.857 643.768C292.287 644.658 293.883 645.103 295.644 645.103C296.61 645.103 297.538 644.971 298.428 644.706C299.319 644.44 300.128 644.047 300.857 643.527C301.596 642.996 302.221 642.348 302.732 641.581C303.253 640.804 303.618 639.914 303.826 638.91H307.349C307.084 640.397 306.601 641.727 305.9 642.902C305.199 644.076 304.328 645.075 303.286 645.899C302.245 646.713 301.075 647.333 299.778 647.76C298.49 648.186 297.112 648.399 295.644 648.399C293.163 648.399 290.957 647.793 289.025 646.581C287.093 645.368 285.573 643.645 284.465 641.41C283.357 639.175 282.803 636.524 282.803 633.456C282.803 630.387 283.357 627.736 284.465 625.501C285.573 623.266 287.093 621.543 289.025 620.331C290.957 619.118 293.163 618.512 295.644 618.512C297.112 618.512 298.49 618.725 299.778 619.152C301.075 619.578 302.245 620.203 303.286 621.027C304.328 621.841 305.199 622.835 305.9 624.01C306.601 625.174 307.084 626.505 307.349 628.001ZM313.041 648.001V618.91H316.564V631.865H332.075V618.91H335.598V648.001H332.075V634.99H316.564V648.001H313.041ZM346.173 618.91V648.001H342.651V618.91H346.173ZM377.782 633.456C377.782 636.524 377.228 639.175 376.12 641.41C375.012 643.645 373.492 645.368 371.56 646.581C369.629 647.793 367.422 648.399 364.941 648.399C362.46 648.399 360.254 647.793 358.322 646.581C356.39 645.368 354.87 643.645 353.762 641.41C352.654 639.175 352.1 636.524 352.1 633.456C352.1 630.387 352.654 627.736 353.762 625.501C354.87 623.266 356.39 621.543 358.322 620.331C360.254 619.118 362.46 618.512 364.941 618.512C367.422 618.512 369.629 619.118 371.56 620.331C373.492 621.543 375.012 623.266 376.12 625.501C377.228 627.736 377.782 630.387 377.782 633.456ZM374.373 633.456C374.373 630.937 373.952 628.811 373.109 627.078C372.275 625.345 371.144 624.033 369.714 623.143C368.293 622.253 366.703 621.808 364.941 621.808C363.18 621.808 361.584 622.253 360.154 623.143C358.734 624.033 357.602 625.345 356.759 627.078C355.926 628.811 355.509 630.937 355.509 633.456C355.509 635.974 355.926 638.1 356.759 639.833C357.602 641.566 358.734 642.878 360.154 643.768C361.584 644.658 363.18 645.103 364.941 645.103C366.703 645.103 368.293 644.658 369.714 643.768C371.144 642.878 372.275 641.566 373.109 639.833C373.952 638.1 374.373 635.974 374.373 633.456ZM4 697.001V667.91H15.4773C17.6742 667.91 19.5492 668.303 21.1023 669.089C22.6648 669.866 23.8532 670.969 24.6676 672.399C25.4915 673.819 25.9034 675.491 25.9034 677.413C25.9034 679.345 25.4867 681.007 24.6534 682.399C23.8201 683.781 22.6127 684.842 21.0312 685.581C19.4593 686.319 17.5559 686.689 15.321 686.689H7.63636V681.745H14.3267C15.5009 681.745 16.4763 681.584 17.2528 681.262C18.0293 680.94 18.607 680.457 18.9858 679.813C19.374 679.17 19.5682 678.369 19.5682 677.413C19.5682 676.447 19.374 675.633 18.9858 674.97C18.607 674.307 18.0246 673.805 17.2386 673.464C16.4621 673.114 15.482 672.939 14.2983 672.939H10.1506V697.001H4ZM19.7102 683.762L26.9403 697.001H20.1506L13.0767 683.762H19.7102ZM30.25 697.001V667.91H49.8523V672.981H36.4006V679.913H48.8437V684.984H36.4006V691.93H49.9091V697.001H30.25ZM65.0547 697.001H54.7422V667.91H65.1399C68.066 667.91 70.585 668.492 72.6967 669.657C74.8085 670.813 76.4325 672.474 77.5689 674.643C78.7147 676.812 79.2876 679.406 79.2876 682.427C79.2876 685.457 78.7147 688.062 77.5689 690.24C76.4325 692.418 74.799 694.089 72.6683 695.254C70.5471 696.419 68.0092 697.001 65.0547 697.001ZM60.8927 691.731H64.799C66.6172 691.731 68.1465 691.409 69.3871 690.765C70.6371 690.112 71.5746 689.103 72.1996 687.74C72.834 686.367 73.1513 684.596 73.1513 682.427C73.1513 680.278 72.834 678.521 72.1996 677.157C71.5746 675.794 70.6418 674.79 69.4013 674.146C68.1607 673.502 66.6314 673.18 64.8132 673.18H60.8927V691.731ZM93.1016 697.001V667.91H104.749C106.89 667.91 108.675 668.227 110.104 668.862C111.534 669.496 112.609 670.377 113.329 671.504C114.049 672.621 114.408 673.909 114.408 675.367C114.408 676.504 114.181 677.503 113.727 678.365C113.272 679.217 112.647 679.918 111.852 680.467C111.066 681.007 110.166 681.39 109.153 681.617V681.902C110.261 681.949 111.298 682.261 112.264 682.839C113.239 683.417 114.03 684.226 114.636 685.268C115.242 686.3 115.545 687.531 115.545 688.961C115.545 690.505 115.161 691.883 114.394 693.095C113.637 694.297 112.515 695.249 111.028 695.95C109.541 696.651 107.709 697.001 105.531 697.001H93.1016ZM99.2521 691.973H104.266C105.98 691.973 107.23 691.646 108.016 690.992C108.802 690.33 109.195 689.449 109.195 688.35C109.195 687.546 109.001 686.835 108.613 686.22C108.225 685.604 107.671 685.121 106.951 684.771C106.241 684.421 105.393 684.245 104.408 684.245H99.2521V691.973ZM99.2521 680.083H103.812C104.655 680.083 105.403 679.937 106.056 679.643C106.719 679.34 107.24 678.914 107.619 678.365C108.007 677.815 108.201 677.157 108.201 676.39C108.201 675.339 107.827 674.492 107.079 673.848C106.34 673.204 105.289 672.882 103.926 672.882H99.2521V680.083ZM137.516 667.91H143.666V686.802C143.666 688.923 143.16 690.779 142.146 692.37C141.143 693.961 139.736 695.202 137.928 696.092C136.119 696.973 134.012 697.413 131.607 697.413C129.192 697.413 127.08 696.973 125.271 696.092C123.463 695.202 122.056 693.961 121.053 692.37C120.049 690.779 119.547 688.923 119.547 686.802V667.91H125.698V686.277C125.698 687.385 125.939 688.369 126.422 689.231C126.914 690.093 127.606 690.77 128.496 691.262C129.386 691.755 130.423 692.001 131.607 692.001C132.8 692.001 133.837 691.755 134.717 691.262C135.608 690.77 136.294 690.093 136.777 689.231C137.27 688.369 137.516 687.385 137.516 686.277V667.91ZM148.727 697.001V667.91H154.877V691.93H167.349V697.001H148.727ZM171.422 697.001V667.91H177.573V691.93H190.044V697.001H171.422ZM221.344 667.91H227.494V686.802C227.494 688.923 226.988 690.779 225.975 692.37C224.971 693.961 223.564 695.202 221.756 696.092C219.947 696.973 217.84 697.413 215.435 697.413C213.02 697.413 210.908 696.973 209.1 696.092C207.291 695.202 205.885 693.961 204.881 692.37C203.877 690.779 203.375 688.923 203.375 686.802V667.91H209.526V686.277C209.526 687.385 209.767 688.369 210.25 689.231C210.743 690.093 211.434 690.77 212.324 691.262C213.214 691.755 214.251 692.001 215.435 692.001C216.628 692.001 217.665 691.755 218.546 691.262C219.436 690.77 220.122 690.093 220.605 689.231C221.098 688.369 221.344 687.385 221.344 686.277V667.91ZM248.336 676.277C248.222 675.131 247.735 674.241 246.873 673.606C246.011 672.972 244.842 672.654 243.364 672.654C242.361 672.654 241.513 672.796 240.822 673.081C240.131 673.355 239.6 673.739 239.231 674.231C238.871 674.724 238.691 675.282 238.691 675.907C238.672 676.428 238.781 676.883 239.018 677.271C239.264 677.659 239.6 677.995 240.026 678.279C240.453 678.554 240.945 678.796 241.504 679.004C242.062 679.203 242.659 679.373 243.293 679.515L245.907 680.14C247.176 680.424 248.341 680.803 249.401 681.277C250.462 681.75 251.381 682.332 252.157 683.024C252.934 683.715 253.535 684.529 253.961 685.467C254.397 686.404 254.619 687.479 254.629 688.691C254.619 690.472 254.165 692.015 253.265 693.322C252.375 694.619 251.087 695.628 249.401 696.348C247.725 697.058 245.703 697.413 243.336 697.413C240.988 697.413 238.942 697.053 237.2 696.333C235.467 695.614 234.113 694.548 233.137 693.137C232.171 691.717 231.665 689.96 231.617 687.867H237.569C237.635 688.843 237.915 689.657 238.407 690.311C238.909 690.955 239.577 691.442 240.41 691.774C241.253 692.096 242.204 692.257 243.265 692.257C244.307 692.257 245.211 692.105 245.978 691.802C246.755 691.499 247.356 691.078 247.782 690.538C248.208 689.998 248.421 689.378 248.421 688.677C248.421 688.024 248.227 687.474 247.839 687.029C247.46 686.584 246.901 686.206 246.163 685.893C245.434 685.581 244.539 685.296 243.478 685.041L240.31 684.245C237.858 683.649 235.921 682.716 234.501 681.447C233.08 680.178 232.375 678.469 232.384 676.319C232.375 674.558 232.844 673.019 233.791 671.703C234.747 670.386 236.059 669.359 237.725 668.62C239.392 667.882 241.286 667.512 243.407 667.512C245.566 667.512 247.451 667.882 249.06 668.62C250.68 669.359 251.939 670.386 252.839 671.703C253.738 673.019 254.203 674.544 254.231 676.277H248.336ZM263.116 697.001H256.525L266.568 667.91H274.494L284.522 697.001H277.931L270.644 674.558H270.417L263.116 697.001ZM262.704 685.566H278.272V690.367H262.704V685.566ZM306.088 697.427C304.081 697.427 302.348 697.067 300.889 696.348C299.431 695.628 298.309 694.653 297.523 693.421C296.746 692.181 296.358 690.798 296.358 689.274C296.358 688.137 296.585 687.129 297.04 686.248C297.494 685.367 298.129 684.558 298.943 683.819C299.758 683.071 300.705 682.328 301.784 681.589L307.423 677.882C308.153 677.418 308.688 676.93 309.028 676.419C309.369 675.898 309.54 675.334 309.54 674.728C309.54 674.151 309.308 673.616 308.844 673.123C308.38 672.631 307.722 672.389 306.869 672.399C306.301 672.399 305.809 672.527 305.392 672.782C304.975 673.028 304.649 673.355 304.412 673.762C304.185 674.16 304.071 674.605 304.071 675.098C304.071 675.704 304.242 676.319 304.582 676.944C304.923 677.569 305.378 678.232 305.946 678.933C306.514 679.624 307.135 680.372 307.807 681.177L321.6 697.001H315.293L303.787 684.189C303.029 683.327 302.272 682.427 301.514 681.49C300.766 680.543 300.141 679.539 299.639 678.478C299.137 677.408 298.886 676.248 298.886 674.998C298.886 673.587 299.213 672.318 299.867 671.191C300.529 670.064 301.457 669.174 302.651 668.521C303.844 667.858 305.236 667.527 306.827 667.527C308.38 667.527 309.72 667.844 310.847 668.478C311.983 669.103 312.854 669.937 313.46 670.978C314.076 672.01 314.384 673.147 314.384 674.387C314.384 675.76 314.043 677.006 313.361 678.123C312.689 679.231 311.742 680.225 310.52 681.106L304.582 685.382C303.778 685.969 303.181 686.57 302.793 687.186C302.414 687.792 302.225 688.374 302.225 688.933C302.225 689.624 302.395 690.244 302.736 690.794C303.077 691.343 303.56 691.778 304.185 692.1C304.81 692.413 305.544 692.569 306.386 692.569C307.409 692.569 308.418 692.337 309.412 691.873C310.416 691.4 311.325 690.732 312.139 689.87C312.963 688.999 313.621 687.967 314.114 686.774C314.606 685.581 314.852 684.26 314.852 682.811H319.867C319.867 684.591 319.672 686.196 319.284 687.626C318.896 689.046 318.356 690.287 317.665 691.348C316.974 692.399 316.183 693.26 315.293 693.933C315.009 694.113 314.734 694.283 314.469 694.444C314.204 694.605 313.929 694.776 313.645 694.956C312.565 695.827 311.358 696.456 310.023 696.845C308.697 697.233 307.386 697.427 306.088 697.427ZM333.492 697.001V667.91H345.14C347.28 667.91 349.065 668.227 350.495 668.862C351.925 669.496 353 670.377 353.72 671.504C354.439 672.621 354.799 673.909 354.799 675.367C354.799 676.504 354.572 677.503 354.117 678.365C353.663 679.217 353.038 679.918 352.242 680.467C351.456 681.007 350.557 681.39 349.543 681.617V681.902C350.651 681.949 351.688 682.261 352.654 682.839C353.63 683.417 354.42 684.226 355.026 685.268C355.632 686.3 355.935 687.531 355.935 688.961C355.935 690.505 355.552 691.883 354.785 693.095C354.027 694.297 352.905 695.249 351.418 695.95C349.932 696.651 348.099 697.001 345.921 697.001H333.492ZM339.643 691.973H344.657C346.371 691.973 347.621 691.646 348.407 690.992C349.193 690.33 349.586 689.449 349.586 688.35C349.586 687.546 349.392 686.835 349.004 686.22C348.615 685.604 348.061 685.121 347.342 684.771C346.631 684.421 345.784 684.245 344.799 684.245H339.643V691.973ZM339.643 680.083H344.203C345.045 680.083 345.793 679.937 346.447 679.643C347.11 679.34 347.631 678.914 348.009 678.365C348.398 677.815 348.592 677.157 348.592 676.39C348.592 675.339 348.218 674.492 347.47 673.848C346.731 673.204 345.68 672.882 344.316 672.882H339.643V680.083ZM359.938 697.001V667.91H371.415C373.612 667.91 375.487 668.303 377.04 669.089C378.602 669.866 379.791 670.969 380.605 672.399C381.429 673.819 381.841 675.491 381.841 677.413C381.841 679.345 381.424 681.007 380.591 682.399C379.758 683.781 378.55 684.842 376.969 685.581C375.397 686.319 373.493 686.689 371.259 686.689H363.574V681.745H370.264C371.439 681.745 372.414 681.584 373.19 681.262C373.967 680.94 374.545 680.457 374.923 679.813C375.312 679.17 375.506 678.369 375.506 677.413C375.506 676.447 375.312 675.633 374.923 674.97C374.545 674.307 373.962 673.805 373.176 673.464C372.4 673.114 371.42 672.939 370.236 672.939H366.088V697.001H359.938ZM375.648 683.762L382.878 697.001H376.088L369.014 683.762H375.648ZM391.202 697.001H384.611L394.653 667.91H402.58L412.608 697.001H406.017L398.73 674.558H398.503L391.202 697.001ZM390.79 685.566H406.358V690.367H390.79V685.566ZM415.797 697.001V693.35L430.314 672.981H415.769V667.91H438.041V671.561L423.51 691.93H438.07V697.001H415.797ZM448.94 667.91V697.001H442.789V667.91H448.94ZM454 697.001V667.91H460.151V691.93H472.622V697.001H454Z" fill="white"/>
</g>
<g filter="url(#filter1_d_1686_2445)">
<path d="M55.0452 4.38998C55.4942 3.00802 57.4493 3.00802 57.8984 4.38999L68.4833 36.967C68.6841 37.585 69.26 38.0035 69.9099 38.0035H104.163C105.616 38.0035 106.221 39.8629 105.045 40.717L77.3334 60.8507C76.8076 61.2327 76.5877 61.9097 76.7885 62.5277L87.3734 95.1048C87.8224 96.4867 86.2407 97.6359 85.0651 96.7818L57.3535 76.6481C56.8277 76.2661 56.1158 76.2661 55.5901 76.6481L27.8784 96.7818C26.7029 97.6359 25.1211 96.4867 25.5702 95.1048L36.1551 62.5277C36.3559 61.9097 36.1359 61.2327 35.6102 60.8507L7.89854 40.717C6.72297 39.8629 7.32713 38.0035 8.78022 38.0035H43.0337C43.6835 38.0035 44.2595 37.585 44.4603 36.967L55.0452 4.38998Z" fill="#FBBC04"/>
<path d="M165.045 4.38998C165.494 3.00802 167.449 3.00802 167.898 4.38999L178.483 36.967C178.684 37.585 179.26 38.0035 179.91 38.0035H214.163C215.616 38.0035 216.221 39.8629 215.045 40.717L187.333 60.8507C186.808 61.2327 186.588 61.9097 186.788 62.5277L197.373 95.1048C197.822 96.4867 196.241 97.6359 195.065 96.7818L167.353 76.6481C166.828 76.2661 166.116 76.2661 165.59 76.6481L137.878 96.7818C136.703 97.6359 135.121 96.4867 135.57 95.1048L146.155 62.5277C146.356 61.9097 146.136 61.2327 145.61 60.8507L117.898 40.717C116.723 39.8629 117.327 38.0035 118.78 38.0035H153.034C153.683 38.0035 154.259 37.585 154.46 36.967L165.045 4.38998Z" fill="#FBBC04"/>
<path d="M385.045 4.38998C385.494 3.00802 387.449 3.00802 387.898 4.38999L398.483 36.967C398.684 37.585 399.26 38.0035 399.91 38.0035H434.163C435.616 38.0035 436.221 39.8629 435.045 40.717L407.333 60.8507C406.808 61.2327 406.588 61.9097 406.788 62.5277L417.373 95.1048C417.822 96.4867 416.241 97.6359 415.065 96.7818L387.353 76.6481C386.828 76.2661 386.116 76.2661 385.59 76.6481L357.878 96.7818C356.703 97.6359 355.121 96.4867 355.57 95.1048L366.155 62.5277C366.356 61.9097 366.136 61.2327 365.61 60.8507L337.898 40.717C336.723 39.8629 337.327 38.0035 338.78 38.0035H373.034C373.683 38.0035 374.259 37.585 374.46 36.967L385.045 4.38998Z" fill="#FBBC04"/>
<path d="M275.045 4.38998C275.494 3.00802 277.449 3.00802 277.898 4.38999L288.483 36.967C288.684 37.585 289.26 38.0035 289.91 38.0035H324.163C325.616 38.0035 326.221 39.8629 325.045 40.717L297.333 60.8507C296.808 61.2327 296.588 61.9097 296.788 62.5277L307.373 95.1048C307.822 96.4867 306.241 97.6359 305.065 96.7818L277.353 76.6481C276.828 76.2661 276.116 76.2661 275.59 76.6481L247.878 96.7818C246.703 97.6359 245.121 96.4867 245.57 95.1048L256.155 62.5277C256.356 61.9097 256.136 61.2327 255.61 60.8507L227.898 40.717C226.723 39.8629 227.327 38.0035 228.78 38.0035H263.034C263.683 38.0035 264.259 37.585 264.46 36.967L275.045 4.38998Z" fill="#FBBC04"/>
<path d="M495.045 4.38998C495.494 3.00802 497.449 3.00802 497.898 4.38999L508.483 36.967C508.684 37.585 509.26 38.0035 509.91 38.0035H544.163C545.616 38.0035 546.221 39.8629 545.045 40.717L517.333 60.8507C516.808 61.2327 516.588 61.9097 516.788 62.5277L527.373 95.1048C527.822 96.4867 526.241 97.6359 525.065 96.7818L497.353 76.6481C496.828 76.2661 496.116 76.2661 495.59 76.6481L467.878 96.7818C466.703 97.6359 465.121 96.4867 465.57 95.1048L476.155 62.5277C476.356 61.9097 476.136 61.2327 475.61 60.8507L447.898 40.717C446.723 39.8629 447.327 38.0035 448.78 38.0035H483.034C483.683 38.0035 484.259 37.585 484.46 36.967L495.045 4.38998Z" fill="#FBBC04"/>
</g>
<defs>
<filter id="filter0_d_1686_2445" x="0" y="183.348" width="851.521" height="522.078" filterUnits="userSpaceOnUse" color-interpolation-filters="sRGB">
<feFlood flood-opacity="0" result="BackgroundImageFix"/>
<feColorMatrix in="SourceAlpha" type="matrix" values="0 0 0 0 0 0 0 0 0 0 0 0 0 0 0 0 0 0 127 0" result="hardAlpha"/>
<feOffset dy="4"/>
<feGaussianBlur stdDeviation="2"/>
<feComposite in2="hardAlpha" operator="out"/>
<feColorMatrix type="matrix" values="0 0 0 0 0 0 0 0 0 0 0 0 0 0 0 0 0 0 0.25 0"/>
<feBlend mode="normal" in2="BackgroundImageFix" result="effect1_dropShadow_1686_2445"/>
<feBlend mode="normal" in="SourceGraphic" in2="effect1_dropShadow_1686_2445" result="shape"/>
</filter>
<filter id="filter1_d_1686_2445" x="3.27734" y="3.35352" width="546.389" height="103.721" filterUnits="userSpaceOnUse" color-interpolation-filters="sRGB">
<feFlood flood-opacity="0" result="BackgroundImageFix"/>
<feColorMatrix in="SourceAlpha" type="matrix" values="0 0 0 0 0 0 0 0 0 0 0 0 0 0 0 0 0 0 127 0" result="hardAlpha"/>
<feOffset dy="6"/>
<feGaussianBlur stdDeviation="2"/>
<feComposite in2="hardAlpha" operator="out"/>
<feColorMatrix type="matrix" values="0 0 0 0 1 0 0 0 0 1 0 0 0 0 1 0 0 0 0.15 0"/>
<feBlend mode="normal" in2="BackgroundImageFix" result="effect1_dropShadow_1686_2445"/>
<feBlend mode="normal" in="SourceGraphic" in2="effect1_dropShadow_1686_2445" result="shape"/>
</filter>
</defs>
</svg>
