<svg width="934" height="706" viewBox="0 0 934 706" fill="none" xmlns="http://www.w3.org/2000/svg">
<g filter="url(#filter0_d_1686_2403)">
<path d="M7.45197 204.001V197.865C7.45197 196.122 7.79288 194.342 8.4747 192.524C9.15652 190.706 10.0561 188.992 11.1736 187.382C12.291 185.772 13.5031 184.427 14.8099 183.348L20.1508 186.501C19.0902 188.168 18.219 189.91 17.5372 191.728C16.8743 193.546 16.5429 195.573 16.5429 197.808V204.001H7.45197ZM21.7986 204.001V197.865C21.7986 196.122 22.1395 194.342 22.8213 192.524C23.5031 190.706 24.4027 188.992 25.5201 187.382C26.6376 185.772 27.8497 184.427 29.1565 183.348L34.4974 186.501C33.4368 188.168 32.5656 189.91 31.8838 191.728C31.2209 193.546 30.8895 195.573 30.8895 197.808V204.001H21.7986ZM40.6554 244.001V185.819H52.9565V209.825H77.9281V185.819H90.2008V244.001H77.9281V219.967H52.9565V244.001H40.6554ZM111.444 185.819V244.001H99.1429V185.819H111.444ZM151.928 202.552C151.7 200.26 150.725 198.48 149.001 197.211C147.278 195.942 144.939 195.308 141.984 195.308C139.977 195.308 138.282 195.592 136.899 196.16C135.517 196.709 134.456 197.476 133.717 198.461C132.998 199.446 132.638 200.563 132.638 201.813C132.6 202.855 132.818 203.764 133.291 204.541C133.784 205.317 134.456 205.99 135.308 206.558C136.161 207.107 137.145 207.59 138.263 208.007C139.38 208.404 140.573 208.745 141.842 209.029L147.07 210.279C149.607 210.848 151.937 211.605 154.058 212.552C156.179 213.499 158.017 214.664 159.57 216.046C161.123 217.429 162.325 219.058 163.178 220.933C164.049 222.808 164.494 224.957 164.513 227.382C164.494 230.942 163.585 234.029 161.786 236.643C160.005 239.238 157.429 241.255 154.058 242.694C150.706 244.115 146.662 244.825 141.928 244.825C137.231 244.825 133.14 244.105 129.655 242.666C126.189 241.226 123.481 239.096 121.53 236.274C119.598 233.433 118.585 229.92 118.49 225.734H130.393C130.526 227.685 131.085 229.313 132.07 230.62C133.073 231.908 134.409 232.884 136.075 233.546C137.761 234.19 139.664 234.512 141.786 234.512C143.869 234.512 145.678 234.209 147.212 233.603C148.765 232.997 149.967 232.154 150.82 231.075C151.672 229.995 152.098 228.755 152.098 227.353C152.098 226.046 151.71 224.948 150.933 224.058C150.176 223.168 149.058 222.41 147.581 221.785C146.123 221.16 144.333 220.592 142.212 220.081L135.876 218.49C130.971 217.296 127.098 215.431 124.257 212.893C121.416 210.355 120.005 206.937 120.024 202.637C120.005 199.115 120.943 196.037 122.837 193.404C124.75 190.772 127.373 188.717 130.706 187.24C134.039 185.762 137.827 185.024 142.07 185.024C146.388 185.024 150.157 185.762 153.376 187.24C156.615 188.717 159.134 190.772 160.933 193.404C162.732 196.037 163.661 199.086 163.717 202.552H151.928ZM198.931 244.001H185.749L205.834 185.819H221.687L241.743 244.001H228.562L213.988 199.115H213.533L198.931 244.001ZM198.107 221.132H229.243V230.734H198.107V221.132ZM247.546 244.001V185.819H270.842C275.122 185.819 278.692 186.454 281.552 187.723C284.412 188.992 286.561 190.753 288.001 193.007C289.44 195.242 290.16 197.817 290.16 200.734C290.16 203.007 289.705 205.005 288.796 206.728C287.887 208.433 286.637 209.834 285.046 210.933C283.474 212.012 281.675 212.779 279.649 213.234V213.802C281.864 213.897 283.938 214.522 285.87 215.677C287.821 216.832 289.402 218.452 290.614 220.535C291.827 222.599 292.433 225.062 292.433 227.921C292.433 231.009 291.666 233.764 290.132 236.189C288.616 238.594 286.372 240.497 283.399 241.899C280.425 243.3 276.76 244.001 272.404 244.001H247.546ZM259.847 233.944H269.876C273.304 233.944 275.804 233.291 277.376 231.984C278.948 230.658 279.734 228.897 279.734 226.7C279.734 225.09 279.346 223.67 278.569 222.439C277.793 221.207 276.685 220.242 275.245 219.541C273.825 218.84 272.13 218.49 270.16 218.49H259.847V233.944ZM259.847 210.166H268.967C270.652 210.166 272.149 209.872 273.455 209.285C274.781 208.679 275.823 207.827 276.58 206.728C277.357 205.63 277.745 204.313 277.745 202.779C277.745 200.677 276.997 198.982 275.501 197.694C274.024 196.406 271.921 195.762 269.194 195.762H259.847V210.166ZM311.538 185.819V244.001H299.237V185.819H311.538ZM320.459 244.001V185.819H332.76V233.859H357.703V244.001H320.459ZM376.951 185.819V244.001H364.649V185.819H376.951ZM383.655 195.961V185.819H431.439V195.961H413.627V244.001H401.468V195.961H383.655ZM434.7 185.819H448.478L461.745 210.876H462.313L475.58 185.819H489.359L468.137 223.433V244.001H455.921V223.433L434.7 185.819ZM509.977 195.961V185.819H557.761V195.961H539.949V244.001H527.79V195.961H509.977ZM615.24 214.91C615.24 221.255 614.038 226.653 611.632 231.103C609.246 235.554 605.988 238.954 601.86 241.302C597.75 243.632 593.129 244.796 587.996 244.796C582.826 244.796 578.185 243.622 574.076 241.274C569.966 238.925 566.718 235.526 564.331 231.075C561.945 226.624 560.752 221.236 560.752 214.91C560.752 208.565 561.945 203.168 564.331 198.717C566.718 194.266 569.966 190.876 574.076 188.546C578.185 186.198 582.826 185.024 587.996 185.024C593.129 185.024 597.75 186.198 601.86 188.546C605.988 190.876 609.246 194.266 611.632 198.717C614.038 203.168 615.24 208.565 615.24 214.91ZM602.769 214.91C602.769 210.8 602.153 207.334 600.922 204.512C599.71 201.69 597.996 199.55 595.78 198.092C593.564 196.634 590.97 195.904 587.996 195.904C585.023 195.904 582.428 196.634 580.212 198.092C577.996 199.55 576.273 201.69 575.041 204.512C573.829 207.334 573.223 210.8 573.223 214.91C573.223 219.02 573.829 222.486 575.041 225.308C576.273 228.13 577.996 230.27 580.212 231.728C582.428 233.187 585.023 233.916 587.996 233.916C590.97 233.916 593.564 233.187 595.78 231.728C597.996 230.27 599.71 228.13 600.922 225.308C602.153 222.486 602.769 219.02 602.769 214.91ZM447.888 385.819V444.001H435.587V385.819H447.888ZM488.371 402.552C488.144 400.26 487.169 398.48 485.445 397.211C483.722 395.942 481.383 395.308 478.428 395.308C476.421 395.308 474.725 395.592 473.343 396.16C471.96 396.709 470.9 397.476 470.161 398.461C469.441 399.446 469.082 400.563 469.082 401.813C469.044 402.855 469.261 403.764 469.735 404.541C470.227 405.317 470.9 405.99 471.752 406.558C472.604 407.107 473.589 407.59 474.707 408.007C475.824 408.404 477.017 408.745 478.286 409.029L483.513 410.279C486.051 410.848 488.381 411.605 490.502 412.552C492.623 413.499 494.46 414.664 496.013 416.046C497.566 417.429 498.769 419.058 499.621 420.933C500.493 422.808 500.938 424.957 500.957 427.382C500.938 430.942 500.028 434.029 498.229 436.643C496.449 439.238 493.873 441.255 490.502 442.694C487.15 444.115 483.106 444.825 478.371 444.825C473.674 444.825 469.583 444.105 466.099 442.666C462.633 441.226 459.924 439.096 457.974 436.274C456.042 433.433 455.028 429.92 454.934 425.734H466.837C466.97 427.685 467.528 429.313 468.513 430.62C469.517 431.908 470.852 432.884 472.519 433.546C474.205 434.19 476.108 434.512 478.229 434.512C480.313 434.512 482.121 434.209 483.655 433.603C485.208 432.997 486.411 432.154 487.263 431.075C488.116 429.995 488.542 428.755 488.542 427.353C488.542 426.046 488.153 424.948 487.377 424.058C486.619 423.168 485.502 422.41 484.025 421.785C482.566 421.16 480.777 420.592 478.655 420.081L472.32 418.49C467.415 417.296 463.542 415.431 460.701 412.893C457.86 410.355 456.449 406.937 456.468 402.637C456.449 399.115 457.386 396.037 459.28 393.404C461.193 390.772 463.816 388.717 467.15 387.24C470.483 385.762 474.271 385.024 478.513 385.024C482.832 385.024 486.6 385.762 489.82 387.24C493.059 388.717 495.578 390.772 497.377 393.404C499.176 396.037 500.104 399.086 500.161 402.552H488.371ZM538.443 444.001L521.795 385.819H535.233L544.863 426.245H545.346L555.971 385.819H567.477L578.074 426.331H578.585L588.216 385.819H601.653L585.005 444.001H573.017L561.937 405.961H561.483L550.431 444.001H538.443ZM607.037 444.001V385.819H619.338V409.825H644.31V385.819H656.582V444.001H644.31V419.967H619.338V444.001H607.037ZM675.553 444.001H662.371L682.456 385.819H698.309L718.365 444.001H705.184L690.61 399.115H690.155L675.553 444.001ZM674.729 421.132H705.865V430.734H674.729V421.132ZM714.843 395.961V385.819H762.627V395.961H744.814V444.001H732.655V395.961H714.843ZM20.4065 485.819V544.001H8.10538V485.819H20.4065ZM29.3272 485.819H44.4977L60.5204 524.91H61.2022L77.225 485.819H92.3954V544.001H80.4636V506.132H79.9807L64.9238 543.717H56.7988L41.742 505.99H41.2591V544.001H29.3272V485.819ZM101.331 544.001V485.819H124.285C128.698 485.819 132.458 486.662 135.564 488.348C138.67 490.014 141.037 492.334 142.666 495.308C144.314 498.262 145.137 501.671 145.137 505.535C145.137 509.399 144.304 512.808 142.637 515.762C140.971 518.717 138.556 521.018 135.393 522.666C132.249 524.313 128.442 525.137 123.973 525.137H109.342V515.279H121.984C124.352 515.279 126.302 514.872 127.836 514.058C129.389 513.224 130.545 512.079 131.302 510.62C132.079 509.143 132.467 507.448 132.467 505.535C132.467 503.603 132.079 501.918 131.302 500.478C130.545 499.02 129.389 497.893 127.836 497.098C126.283 496.283 124.314 495.876 121.927 495.876H113.632V544.001H101.331ZM151.928 544.001V485.819H174.882C179.276 485.819 183.026 486.605 186.132 488.177C189.257 489.73 191.634 491.937 193.263 494.796C194.91 497.637 195.734 500.98 195.734 504.825C195.734 508.688 194.901 512.012 193.234 514.796C191.568 517.562 189.153 519.683 185.99 521.16C182.846 522.637 179.039 523.376 174.57 523.376H159.2V513.49H172.581C174.929 513.49 176.88 513.168 178.433 512.524C179.986 511.88 181.142 510.914 181.899 509.626C182.676 508.338 183.064 506.738 183.064 504.825C183.064 502.893 182.676 501.264 181.899 499.939C181.142 498.613 179.977 497.609 178.405 496.927C176.852 496.226 174.892 495.876 172.524 495.876H164.229V544.001H151.928ZM183.348 517.524L197.808 544.001H184.229L170.081 517.524H183.348ZM203.228 544.001V485.819H242.432V495.961H215.529V509.825H240.415V519.967H215.529V533.859H242.546V544.001H203.228ZM282.574 502.552C282.347 500.26 281.372 498.48 279.648 497.211C277.925 495.942 275.586 495.308 272.631 495.308C270.624 495.308 268.929 495.592 267.546 496.16C266.163 496.709 265.103 497.476 264.364 498.461C263.644 499.446 263.285 500.563 263.285 501.813C263.247 502.855 263.465 503.764 263.938 504.541C264.43 505.317 265.103 505.99 265.955 506.558C266.807 507.107 267.792 507.59 268.91 508.007C270.027 508.404 271.22 508.745 272.489 509.029L277.716 510.279C280.254 510.848 282.584 511.605 284.705 512.552C286.826 513.499 288.663 514.664 290.216 516.046C291.769 517.429 292.972 519.058 293.824 520.933C294.696 522.808 295.141 524.957 295.16 527.382C295.141 530.942 294.232 534.029 292.432 536.643C290.652 539.238 288.076 541.255 284.705 542.694C281.353 544.115 277.309 544.825 272.574 544.825C267.877 544.825 263.787 544.105 260.302 542.666C256.836 541.226 254.127 539.096 252.177 536.274C250.245 533.433 249.232 529.92 249.137 525.734H261.04C261.173 527.685 261.732 529.313 262.716 530.62C263.72 531.908 265.055 532.884 266.722 533.546C268.408 534.19 270.311 534.512 272.432 534.512C274.516 534.512 276.324 534.209 277.859 533.603C279.412 532.997 280.614 532.154 281.466 531.075C282.319 529.995 282.745 528.755 282.745 527.353C282.745 526.046 282.357 524.948 281.58 524.058C280.823 523.168 279.705 522.41 278.228 521.785C276.769 521.16 274.98 520.592 272.859 520.081L266.523 518.49C261.618 517.296 257.745 515.431 254.904 512.893C252.063 510.355 250.652 506.937 250.671 502.637C250.652 499.115 251.59 496.037 253.484 493.404C255.396 490.772 258.019 488.717 261.353 487.24C264.686 485.762 268.474 485.024 272.716 485.024C277.035 485.024 280.804 485.762 284.023 487.24C287.262 488.717 289.781 490.772 291.58 493.404C293.379 496.037 294.307 499.086 294.364 502.552H282.574ZM333.796 502.552C333.569 500.26 332.594 498.48 330.87 497.211C329.147 495.942 326.808 495.308 323.853 495.308C321.846 495.308 320.15 495.592 318.768 496.16C317.385 496.709 316.325 497.476 315.586 498.461C314.866 499.446 314.507 500.563 314.507 501.813C314.469 502.855 314.686 503.764 315.16 504.541C315.652 505.317 316.325 505.99 317.177 506.558C318.029 507.107 319.014 507.59 320.132 508.007C321.249 508.404 322.442 508.745 323.711 509.029L328.938 510.279C331.476 510.848 333.806 511.605 335.927 512.552C338.048 513.499 339.885 514.664 341.438 516.046C342.991 517.429 344.194 519.058 345.046 520.933C345.917 522.808 346.363 524.957 346.382 527.382C346.363 530.942 345.453 534.029 343.654 536.643C341.874 539.238 339.298 541.255 335.927 542.694C332.575 544.115 328.531 544.825 323.796 544.825C319.099 544.825 315.008 544.105 311.524 542.666C308.058 541.226 305.349 539.096 303.399 536.274C301.467 533.433 300.453 529.92 300.359 525.734H312.262C312.395 527.685 312.953 529.313 313.938 530.62C314.942 531.908 316.277 532.884 317.944 533.546C319.63 534.19 321.533 534.512 323.654 534.512C325.738 534.512 327.546 534.209 329.08 533.603C330.633 532.997 331.836 532.154 332.688 531.075C333.541 529.995 333.967 528.755 333.967 527.353C333.967 526.046 333.578 524.948 332.802 524.058C332.044 523.168 330.927 522.41 329.45 521.785C327.991 521.16 326.202 520.592 324.08 520.081L317.745 518.49C312.84 517.296 308.967 515.431 306.126 512.893C303.285 510.355 301.874 506.937 301.893 502.637C301.874 499.115 302.811 496.037 304.705 493.404C306.618 490.772 309.241 488.717 312.575 487.24C315.908 485.762 319.696 485.024 323.938 485.024C328.257 485.024 332.025 485.762 335.245 487.24C338.484 488.717 341.003 490.772 342.802 493.404C344.601 496.037 345.529 499.086 345.586 502.552H333.796ZM353.456 544.001V485.819H392.66V495.961H365.757V509.825H390.643V519.967H365.757V533.859H392.774V544.001H353.456ZM421.865 544.001H401.24V485.819H422.035C427.888 485.819 432.926 486.984 437.149 489.313C441.373 491.624 444.621 494.948 446.893 499.285C449.185 503.622 450.331 508.812 450.331 514.853C450.331 520.914 449.185 526.122 446.893 530.478C444.621 534.834 441.354 538.177 437.092 540.507C432.85 542.836 427.774 544.001 421.865 544.001ZM413.541 533.461H421.354C424.99 533.461 428.049 532.817 430.53 531.529C433.03 530.223 434.905 528.206 436.155 525.478C437.424 522.732 438.058 519.19 438.058 514.853C438.058 510.554 437.424 507.041 436.155 504.313C434.905 501.586 433.039 499.579 430.558 498.291C428.077 497.003 425.018 496.359 421.382 496.359H413.541V533.461ZM475.559 485.819H490.729L506.752 524.91H507.434L523.457 485.819H538.627V544.001H526.695V506.132H526.212L511.155 543.717H503.03L487.974 505.99H487.491V544.001H475.559V485.819ZM547.562 544.001V485.819H586.766V495.961H559.863V509.825H584.749V519.967H559.863V533.859H586.88V544.001H547.562ZM612.662 485.819H627.832L643.855 524.91H644.537L660.56 485.819H675.73V544.001H663.798V506.132H663.315L648.259 543.717H640.134L625.077 505.99H624.594V544.001H612.662V485.819ZM738.131 514.91C738.131 521.255 736.928 526.653 734.523 531.103C732.137 535.554 728.879 538.954 724.75 541.302C720.64 543.632 716.019 544.796 710.887 544.796C705.716 544.796 701.076 543.622 696.966 541.274C692.856 538.925 689.608 535.526 687.222 531.075C684.836 526.624 683.642 521.236 683.642 514.91C683.642 508.565 684.836 503.168 687.222 498.717C689.608 494.266 692.856 490.876 696.966 488.546C701.076 486.198 705.716 485.024 710.887 485.024C716.019 485.024 720.64 486.198 724.75 488.546C728.879 490.876 732.137 494.266 734.523 498.717C736.928 503.168 738.131 508.565 738.131 514.91ZM725.659 514.91C725.659 510.8 725.044 507.334 723.813 504.512C722.601 501.69 720.887 499.55 718.671 498.092C716.455 496.634 713.86 495.904 710.887 495.904C707.913 495.904 705.318 496.634 703.103 498.092C700.887 499.55 699.163 501.69 697.932 504.512C696.72 507.334 696.114 510.8 696.114 514.91C696.114 519.02 696.72 522.486 697.932 525.308C699.163 528.13 700.887 530.27 703.103 531.728C705.318 533.187 707.913 533.916 710.887 533.916C713.86 533.916 716.455 533.187 718.671 531.728C720.887 530.27 722.601 528.13 723.813 525.308C725.044 522.486 725.659 519.02 725.659 514.91ZM777.606 502.552C777.378 500.26 776.403 498.48 774.68 497.211C772.956 495.942 770.617 495.308 767.662 495.308C765.655 495.308 763.96 495.592 762.577 496.16C761.195 496.709 760.134 497.476 759.395 498.461C758.676 499.446 758.316 500.563 758.316 501.813C758.278 502.855 758.496 503.764 758.969 504.541C759.462 505.317 760.134 505.99 760.986 506.558C761.839 507.107 762.823 507.59 763.941 508.007C765.058 508.404 766.252 508.745 767.52 509.029L772.748 510.279C775.286 510.848 777.615 511.605 779.736 512.552C781.858 513.499 783.695 514.664 785.248 516.046C786.801 517.429 788.003 519.058 788.856 520.933C789.727 522.808 790.172 524.957 790.191 527.382C790.172 530.942 789.263 534.029 787.464 536.643C785.683 539.238 783.108 541.255 779.736 542.694C776.384 544.115 772.341 544.825 767.606 544.825C762.909 544.825 758.818 544.105 755.333 542.666C751.867 541.226 749.159 539.096 747.208 536.274C745.276 533.433 744.263 529.92 744.168 525.734H756.072C756.204 527.685 756.763 529.313 757.748 530.62C758.752 531.908 760.087 532.884 761.753 533.546C763.439 534.19 765.342 534.512 767.464 534.512C769.547 534.512 771.356 534.209 772.89 533.603C774.443 532.997 775.645 532.154 776.498 531.075C777.35 529.995 777.776 528.755 777.776 527.353C777.776 526.046 777.388 524.948 776.611 524.058C775.854 523.168 774.736 522.41 773.259 521.785C771.801 521.16 770.011 520.592 767.89 520.081L761.555 518.49C756.649 517.296 752.776 515.431 749.935 512.893C747.094 510.355 745.683 506.937 745.702 502.637C745.683 499.115 746.621 496.037 748.515 493.404C750.428 490.772 753.051 488.717 756.384 487.24C759.717 485.762 763.505 485.024 767.748 485.024C772.066 485.024 775.835 485.762 779.055 487.24C782.293 488.717 784.812 490.772 786.611 493.404C788.411 496.037 789.339 499.086 789.395 502.552H777.606ZM795.049 495.961V485.819H842.833V495.961H825.021V544.001H812.862V495.961H795.049ZM853.615 544.74C851.74 544.74 850.13 544.077 848.785 542.751C847.459 541.406 846.797 539.796 846.797 537.921C846.797 536.065 847.459 534.474 848.785 533.149C850.13 531.823 851.74 531.16 853.615 531.16C855.433 531.16 857.024 531.823 858.387 533.149C859.751 534.474 860.433 536.065 860.433 537.921C860.433 539.171 860.111 540.317 859.467 541.359C858.842 542.382 858.018 543.206 856.995 543.831C855.973 544.437 854.846 544.74 853.615 544.74ZM871.342 485.819V491.956C871.342 493.698 871.001 495.478 870.32 497.296C869.657 499.096 868.767 500.8 867.649 502.41C866.532 504.001 865.31 505.355 863.984 506.473L858.643 503.319C859.59 501.823 860.424 500.166 861.143 498.348C861.882 496.529 862.251 494.418 862.251 492.012V485.819H871.342ZM885.632 485.819V491.956C885.632 493.698 885.291 495.478 884.609 497.296C883.947 499.096 883.056 500.8 881.939 502.41C880.822 504.001 879.59 505.355 878.246 506.473L872.905 503.319C873.871 501.823 874.714 500.166 875.433 498.348C876.172 496.529 876.541 494.418 876.541 492.012V485.819H885.632ZM22.4804 626.183C22.3099 624.743 21.6186 623.626 20.4065 622.831C19.1944 622.035 17.7076 621.637 15.9463 621.637C14.6584 621.637 13.5315 621.846 12.5656 622.262C11.6092 622.679 10.8611 623.252 10.3213 623.981C9.79099 624.71 9.52583 625.539 9.52583 626.467C9.52583 627.243 9.71049 627.911 10.0798 628.47C10.4586 629.019 10.9415 629.478 11.5287 629.848C12.1158 630.207 12.7313 630.506 13.3753 630.742C14.0192 630.97 14.6111 631.154 15.1508 631.296L18.1054 632.092C18.8629 632.291 19.7057 632.565 20.6338 632.916C21.5713 633.266 22.4662 633.744 23.3184 634.35C24.1802 634.947 24.8904 635.714 25.4491 636.652C26.0078 637.589 26.2872 638.74 26.2872 640.103C26.2872 641.675 25.8753 643.096 25.0514 644.365C24.237 645.634 23.0438 646.642 21.4718 647.39C19.9093 648.138 18.0107 648.512 15.7758 648.512C13.6925 648.512 11.8885 648.176 10.3639 647.504C8.84875 646.831 7.65557 645.894 6.78436 644.691C5.92261 643.489 5.43493 642.092 5.32129 640.501H8.95765C9.05235 641.599 9.42167 642.509 10.0656 643.228C10.719 643.938 11.5429 644.469 12.5372 644.819C13.541 645.16 14.6205 645.331 15.7758 645.331C17.1205 645.331 18.3279 645.113 19.398 644.677C20.4681 644.232 21.3156 643.617 21.9406 642.831C22.5656 642.035 22.8781 641.107 22.8781 640.046C22.8781 639.081 22.6082 638.295 22.0684 637.689C21.5287 637.082 20.8184 636.59 19.9378 636.211C19.0571 635.832 18.1054 635.501 17.0826 635.217L13.5031 634.194C11.2304 633.541 9.43114 632.608 8.10538 631.396C6.77962 630.184 6.11674 628.598 6.11674 626.637C6.11674 625.009 6.55708 623.588 7.43777 622.376C8.32792 621.154 9.5211 620.207 11.0173 619.535C12.523 618.853 14.2039 618.512 16.0599 618.512C17.9349 618.512 19.6016 618.849 21.0599 619.521C22.5182 620.184 23.6736 621.093 24.5258 622.248C25.3876 623.403 25.8421 624.715 25.8895 626.183H22.4804ZM35.6018 618.91V648.001H32.0791V618.91H35.6018ZM42.665 618.91H46.8696L56.7559 643.058H57.0968L66.9832 618.91H71.1878V648.001H67.8923V625.899H67.6082L58.5173 648.001H55.3355L46.2446 625.899H45.9605V648.001H42.665V618.91ZM102.797 633.456C102.797 636.524 102.243 639.175 101.135 641.41C100.027 643.645 98.5066 645.368 96.5748 646.581C94.643 647.793 92.4366 648.399 89.9555 648.399C87.4745 648.399 85.268 647.793 83.3362 646.581C81.4044 645.368 79.8845 643.645 78.7765 641.41C77.6686 639.175 77.1146 636.524 77.1146 633.456C77.1146 630.387 77.6686 627.736 78.7765 625.501C79.8845 623.266 81.4044 621.543 83.3362 620.331C85.268 619.118 87.4745 618.512 89.9555 618.512C92.4366 618.512 94.643 619.118 96.5748 620.331C98.5066 621.543 100.027 623.266 101.135 625.501C102.243 627.736 102.797 630.387 102.797 633.456ZM99.3873 633.456C99.3873 630.937 98.9659 628.811 98.1231 627.078C97.2898 625.345 96.1582 624.033 94.7282 623.143C93.3078 622.253 91.7169 621.808 89.9555 621.808C88.1941 621.808 86.5985 622.253 85.1686 623.143C83.7481 624.033 82.6165 625.345 81.7737 627.078C80.9404 628.811 80.5237 630.937 80.5237 633.456C80.5237 635.974 80.9404 638.1 81.7737 639.833C82.6165 641.566 83.7481 642.878 85.1686 643.768C86.5985 644.658 88.1941 645.103 89.9555 645.103C91.7169 645.103 93.3078 644.658 94.7282 643.768C96.1582 642.878 97.2898 641.566 98.1231 639.833C98.9659 638.1 99.3873 635.974 99.3873 633.456ZM131.788 618.91V648.001H128.379L112.527 625.16H112.243V648.001H108.72V618.91H112.129L128.038 641.808H128.322V618.91H131.788ZM150.087 648.001V618.91H153.61V644.876H167.133V648.001H150.087ZM172.587 648.001V618.91H176.11V644.876H189.633V648.001H172.587ZM218.5 633.456C218.5 636.524 217.946 639.175 216.838 641.41C215.73 643.645 214.21 645.368 212.278 646.581C210.346 647.793 208.14 648.399 205.659 648.399C203.178 648.399 200.971 647.793 199.04 646.581C197.108 645.368 195.588 643.645 194.48 641.41C193.372 639.175 192.818 636.524 192.818 633.456C192.818 630.387 193.372 627.736 194.48 625.501C195.588 623.266 197.108 621.543 199.04 620.331C200.971 619.118 203.178 618.512 205.659 618.512C208.14 618.512 210.346 619.118 212.278 620.331C214.21 621.543 215.73 623.266 216.838 625.501C217.946 627.736 218.5 630.387 218.5 633.456ZM215.091 633.456C215.091 630.937 214.669 628.811 213.827 627.078C212.993 625.345 211.862 624.033 210.432 623.143C209.011 622.253 207.42 621.808 205.659 621.808C203.898 621.808 202.302 622.253 200.872 623.143C199.452 624.033 198.32 625.345 197.477 627.078C196.644 628.811 196.227 630.937 196.227 633.456C196.227 635.974 196.644 638.1 197.477 639.833C198.32 641.566 199.452 642.878 200.872 643.768C202.302 644.658 203.898 645.103 205.659 645.103C207.42 645.103 209.011 644.658 210.432 643.768C211.862 642.878 212.993 641.566 213.827 639.833C214.669 638.1 215.091 635.974 215.091 633.456ZM220.556 618.91H224.59L232.658 632.49H232.999L241.067 618.91H245.101L234.59 636.012V648.001H231.067V636.012L220.556 618.91ZM258.635 648.001H249.658V618.91H259.033C261.854 618.91 264.269 619.492 266.277 620.657C268.284 621.813 269.823 623.474 270.893 625.643C271.963 627.802 272.498 630.387 272.498 633.399C272.498 636.429 271.959 639.038 270.879 641.225C269.8 643.403 268.228 645.08 266.163 646.254C264.099 647.419 261.589 648.001 258.635 648.001ZM253.18 644.876H258.408C260.813 644.876 262.806 644.412 264.388 643.484C265.969 642.556 267.148 641.235 267.925 639.521C268.701 637.807 269.089 635.766 269.089 633.399C269.089 631.05 268.706 629.028 267.939 627.333C267.172 625.629 266.026 624.322 264.501 623.413C262.977 622.494 261.078 622.035 258.805 622.035H253.18V644.876Z" fill="white"/>
<path d="M672.031 202.551C671.803 200.259 670.828 198.479 669.105 197.21C667.381 195.941 665.042 195.307 662.087 195.307C660.08 195.307 658.385 195.591 657.002 196.159C655.62 196.708 654.559 197.475 653.82 198.46C653.101 199.445 652.741 200.562 652.741 201.812C652.703 202.854 652.921 203.763 653.394 204.54C653.887 205.316 654.559 205.989 655.411 206.557C656.264 207.106 657.248 207.589 658.366 208.006C659.483 208.403 660.676 208.744 661.945 209.028L667.173 210.278C669.711 210.847 672.04 211.604 674.161 212.551C676.283 213.498 678.12 214.663 679.673 216.045C681.226 217.428 682.428 219.057 683.281 220.932C684.152 222.807 684.597 224.956 684.616 227.381C684.597 230.941 683.688 234.028 681.889 236.642C680.108 239.237 677.533 241.254 674.161 242.693C670.809 244.114 666.766 244.824 662.031 244.824C657.334 244.824 653.243 244.104 649.758 242.665C646.292 241.225 643.584 239.095 641.633 236.273C639.701 233.432 638.688 229.919 638.593 225.733H650.497C650.629 227.684 651.188 229.312 652.173 230.619C653.176 231.907 654.512 232.883 656.178 233.545C657.864 234.189 659.767 234.511 661.889 234.511C663.972 234.511 665.781 234.208 667.315 233.602C668.868 232.996 670.07 232.153 670.923 231.074C671.775 229.994 672.201 228.754 672.201 227.352C672.201 226.045 671.813 224.947 671.036 224.057C670.279 223.167 669.161 222.409 667.684 221.784C666.226 221.159 664.436 220.591 662.315 220.08L655.98 218.489C651.074 217.295 647.201 215.43 644.36 212.892C641.519 210.354 640.108 206.936 640.127 202.636C640.108 199.114 641.046 196.036 642.94 193.403C644.853 190.771 647.476 188.716 650.809 187.239C654.142 185.761 657.93 185.023 662.173 185.023C666.491 185.023 670.26 185.761 673.48 187.239C676.718 188.716 679.237 190.771 681.036 193.403C682.836 196.036 683.764 199.085 683.82 202.551H672.031ZM691.69 244V185.818H703.991V233.858H728.934V244H691.69ZM748.182 185.818V244H735.881V185.818H748.182ZM808.438 206.188H795.995C795.767 204.578 795.303 203.148 794.603 201.898C793.902 200.629 793.002 199.549 791.904 198.659C790.805 197.769 789.536 197.087 788.097 196.614C786.676 196.14 785.133 195.903 783.466 195.903C780.455 195.903 777.832 196.652 775.597 198.148C773.362 199.625 771.629 201.784 770.398 204.625C769.167 207.447 768.551 210.875 768.551 214.909C768.551 219.057 769.167 222.542 770.398 225.364C771.648 228.186 773.39 230.316 775.625 231.756C777.86 233.195 780.445 233.915 783.381 233.915C785.029 233.915 786.553 233.697 787.955 233.261C789.375 232.826 790.635 232.191 791.733 231.358C792.832 230.506 793.741 229.473 794.461 228.261C795.199 227.049 795.711 225.667 795.995 224.114L808.438 224.17C808.116 226.841 807.311 229.417 806.023 231.898C804.754 234.36 803.04 236.566 800.881 238.517C798.741 240.449 796.184 241.983 793.211 243.119C790.256 244.237 786.913 244.795 783.182 244.795C777.993 244.795 773.353 243.621 769.262 241.273C765.19 238.924 761.97 235.525 759.603 231.074C757.254 226.623 756.08 221.235 756.08 214.909C756.08 208.564 757.273 203.167 759.659 198.716C762.046 194.265 765.284 190.875 769.375 188.545C773.466 186.197 778.068 185.023 783.182 185.023C786.553 185.023 789.678 185.496 792.557 186.443C795.455 187.39 798.021 188.773 800.256 190.591C802.491 192.39 804.309 194.597 805.711 197.21C807.131 199.824 808.04 202.816 808.438 206.188ZM816.059 244V185.818H855.263V195.96H828.36V209.824H853.246V219.966H828.36V233.858H855.377V244H816.059ZM898.772 244.852C894.757 244.852 891.291 244.133 888.375 242.693C885.458 241.254 883.214 239.303 881.642 236.841C880.089 234.36 879.312 231.595 879.312 228.545C879.312 226.273 879.767 224.256 880.676 222.494C881.585 220.733 882.854 219.114 884.483 217.636C886.111 216.14 888.005 214.653 890.164 213.176L901.443 205.761C902.901 204.833 903.971 203.858 904.653 202.835C905.335 201.794 905.676 200.667 905.676 199.455C905.676 198.299 905.212 197.229 904.284 196.244C903.356 195.259 902.039 194.777 900.335 194.795C899.199 194.795 898.214 195.051 897.38 195.562C896.547 196.055 895.894 196.708 895.42 197.523C894.966 198.318 894.738 199.208 894.738 200.193C894.738 201.405 895.079 202.636 895.761 203.886C896.443 205.136 897.352 206.462 898.488 207.864C899.625 209.246 900.865 210.742 902.21 212.352L929.795 244H917.181L894.17 218.375C892.655 216.652 891.14 214.852 889.625 212.977C888.128 211.083 886.878 209.076 885.875 206.955C884.871 204.814 884.369 202.494 884.369 199.994C884.369 197.172 885.022 194.634 886.329 192.381C887.655 190.127 889.511 188.347 891.897 187.04C894.284 185.714 897.068 185.051 900.25 185.051C903.356 185.051 906.036 185.686 908.289 186.955C910.562 188.205 912.305 189.871 913.517 191.955C914.748 194.019 915.363 196.292 915.363 198.773C915.363 201.519 914.681 204.009 913.318 206.244C911.973 208.46 910.079 210.449 907.636 212.21L895.761 220.761C894.151 221.936 892.958 223.138 892.181 224.369C891.424 225.581 891.045 226.746 891.045 227.864C891.045 229.246 891.386 230.487 892.068 231.585C892.75 232.684 893.716 233.555 894.966 234.199C896.216 234.824 897.683 235.136 899.369 235.136C901.414 235.136 903.431 234.672 905.42 233.744C907.428 232.797 909.246 231.462 910.875 229.739C912.522 227.996 913.839 225.932 914.824 223.545C915.808 221.159 916.301 218.517 916.301 215.619H926.329C926.329 219.18 925.941 222.39 925.164 225.25C924.388 228.091 923.308 230.572 921.926 232.693C920.543 234.795 918.962 236.519 917.181 237.864C916.613 238.223 916.064 238.564 915.534 238.886C915.003 239.208 914.454 239.549 913.886 239.909C911.727 241.652 909.312 242.911 906.642 243.688C903.99 244.464 901.367 244.852 898.772 244.852ZM28.7305 344H8.10547V285.818H28.9009C34.7532 285.818 39.7911 286.983 44.0146 289.312C48.238 291.623 51.4862 294.947 53.7589 299.284C56.0505 303.621 57.1964 308.811 57.1964 314.852C57.1964 320.913 56.0505 326.121 53.7589 330.477C51.4862 334.833 48.2191 338.176 43.9577 340.506C39.7153 342.835 34.6396 344 28.7305 344ZM20.4066 333.46H28.2191C31.8555 333.46 34.9142 332.816 37.3952 331.528C39.8952 330.222 41.7702 328.205 43.0202 325.477C44.2892 322.731 44.9237 319.189 44.9237 314.852C44.9237 310.553 44.2892 307.04 43.0202 304.312C41.7702 301.585 39.9047 299.578 37.4237 298.29C34.9426 297.002 31.8839 296.358 28.2475 296.358H20.4066V333.46ZM77.4097 285.818V344H65.1086V285.818H77.4097ZM137.666 306.188H125.223C124.995 304.578 124.531 303.148 123.831 301.898C123.13 300.629 122.23 299.549 121.132 298.659C120.033 297.769 118.764 297.087 117.325 296.614C115.905 296.14 114.361 295.903 112.694 295.903C109.683 295.903 107.06 296.652 104.825 298.148C102.59 299.625 100.857 301.784 99.6259 304.625C98.3949 307.447 97.7793 310.875 97.7793 314.909C97.7793 319.057 98.3949 322.542 99.6259 325.364C100.876 328.186 102.619 330.316 104.853 331.756C107.088 333.195 109.673 333.915 112.609 333.915C114.257 333.915 115.781 333.697 117.183 333.261C118.603 332.826 119.863 332.191 120.961 331.358C122.06 330.506 122.969 329.473 123.689 328.261C124.427 327.049 124.939 325.667 125.223 324.114L137.666 324.17C137.344 326.841 136.539 329.417 135.251 331.898C133.982 334.36 132.268 336.566 130.109 338.517C127.969 340.449 125.412 341.983 122.439 343.119C119.484 344.237 116.141 344.795 112.41 344.795C107.221 344.795 102.581 343.621 98.4896 341.273C94.4176 338.924 91.1979 335.525 88.8305 331.074C86.482 326.623 85.3077 321.235 85.3077 314.909C85.3077 308.564 86.5009 303.167 88.8873 298.716C91.2737 294.265 94.5123 290.875 98.6032 288.545C102.694 286.197 107.297 285.023 112.41 285.023C115.781 285.023 118.906 285.496 121.785 286.443C124.683 287.39 127.249 288.773 129.484 290.591C131.719 292.39 133.537 294.597 134.939 297.21C136.359 299.824 137.268 302.816 137.666 306.188ZM145.287 344V285.818H184.491V295.96H157.588V309.824H182.474V319.966H157.588V333.858H184.605V344H145.287ZM231.012 344H210.387V285.818H231.182C237.035 285.818 242.073 286.983 246.296 289.312C250.519 291.623 253.768 294.947 256.04 299.284C258.332 303.621 259.478 308.811 259.478 314.852C259.478 320.913 258.332 326.121 256.04 330.477C253.768 334.833 250.501 338.176 246.239 340.506C241.997 342.835 236.921 344 231.012 344ZM222.688 333.46H230.501C234.137 333.46 237.196 332.816 239.677 331.528C242.177 330.222 244.052 328.205 245.302 325.477C246.571 322.731 247.205 319.189 247.205 314.852C247.205 310.553 246.571 307.04 245.302 304.312C244.052 301.585 242.186 299.578 239.705 298.29C237.224 297.002 234.165 296.358 230.529 296.358H222.688V333.46ZM279.691 285.818V344H267.39V285.818H279.691ZM299.123 285.818L313.186 330.023H313.726L327.816 285.818H341.453L321.396 344H305.544L285.459 285.818H299.123ZM347.256 344V285.818H386.46V295.96H359.557V309.824H384.443V319.966H359.557V333.858H386.574V344H347.256ZM395.04 344V285.818H417.995C422.389 285.818 426.139 286.604 429.245 288.176C432.37 289.729 434.746 291.936 436.375 294.795C438.023 297.636 438.847 300.979 438.847 304.824C438.847 308.687 438.014 312.011 436.347 314.795C434.68 317.561 432.265 319.682 429.103 321.159C425.959 322.636 422.152 323.375 417.682 323.375H402.313V313.489H415.693C418.042 313.489 419.993 313.167 421.546 312.523C423.099 311.879 424.254 310.913 425.012 309.625C425.788 308.337 426.176 306.737 426.176 304.824C426.176 302.892 425.788 301.263 425.012 299.938C424.254 298.612 423.089 297.608 421.517 296.926C419.964 296.225 418.004 295.875 415.637 295.875H407.341V344H395.04ZM426.461 317.523L440.921 344H427.341L413.193 317.523H426.461ZM477.903 302.551C477.675 300.259 476.7 298.479 474.976 297.21C473.253 295.941 470.914 295.307 467.959 295.307C465.952 295.307 464.257 295.591 462.874 296.159C461.492 296.708 460.431 297.475 459.692 298.46C458.973 299.445 458.613 300.562 458.613 301.812C458.575 302.854 458.793 303.763 459.266 304.54C459.759 305.316 460.431 305.989 461.283 306.557C462.135 307.106 463.12 307.589 464.238 308.006C465.355 308.403 466.548 308.744 467.817 309.028L473.045 310.278C475.582 310.847 477.912 311.604 480.033 312.551C482.154 313.498 483.992 314.663 485.545 316.045C487.098 317.428 488.3 319.057 489.153 320.932C490.024 322.807 490.469 324.956 490.488 327.381C490.469 330.941 489.56 334.028 487.761 336.642C485.98 339.237 483.404 341.254 480.033 342.693C476.681 344.114 472.637 344.824 467.903 344.824C463.206 344.824 459.115 344.104 455.63 342.665C452.164 341.225 449.456 339.095 447.505 336.273C445.573 333.432 444.56 329.919 444.465 325.733H456.368C456.501 327.684 457.06 329.312 458.045 330.619C459.048 331.907 460.384 332.883 462.05 333.545C463.736 334.189 465.639 334.511 467.76 334.511C469.844 334.511 471.653 334.208 473.187 333.602C474.74 332.996 475.942 332.153 476.795 331.074C477.647 329.994 478.073 328.754 478.073 327.352C478.073 326.045 477.685 324.947 476.908 324.057C476.151 323.167 475.033 322.409 473.556 321.784C472.098 321.159 470.308 320.591 468.187 320.08L461.851 318.489C456.946 317.295 453.073 315.43 450.232 312.892C447.391 310.354 445.98 306.936 445.999 302.636C445.98 299.114 446.918 296.036 448.812 293.403C450.725 290.771 453.348 288.716 456.681 287.239C460.014 285.761 463.802 285.023 468.045 285.023C472.363 285.023 476.132 285.761 479.351 287.239C482.59 288.716 485.109 290.771 486.908 293.403C488.707 296.036 489.635 299.085 489.692 302.551H477.903ZM497.562 344V285.818H536.766V295.96H509.863V309.824H534.749V319.966H509.863V333.858H536.88V344H497.562ZM28.7305 444H8.10547V385.818H28.9009C34.7532 385.818 39.7911 386.983 44.0146 389.312C48.238 391.623 51.4862 394.947 53.7589 399.284C56.0505 403.621 57.1964 408.811 57.1964 414.852C57.1964 420.913 56.0505 426.121 53.7589 430.477C51.4862 434.833 48.2191 438.176 43.9577 440.506C39.7153 442.835 34.6396 444 28.7305 444ZM20.4066 433.46H28.2191C31.8555 433.46 34.9142 432.816 37.3952 431.528C39.8952 430.222 41.7702 428.205 43.0202 425.477C44.2892 422.731 44.9237 419.189 44.9237 414.852C44.9237 410.553 44.2892 407.04 43.0202 404.312C41.7702 401.585 39.9047 399.578 37.4237 398.29C34.9426 397.002 31.8839 396.358 28.2475 396.358H20.4066V433.46ZM71.8558 444H58.6739L78.7592 385.818H94.6114L114.668 444H101.487L86.9126 399.114H86.458L71.8558 444ZM71.0319 421.131H102.168V430.733H71.0319V421.131ZM111.146 395.96V385.818H158.93V395.96H141.118V444H128.959V395.96H111.146ZM168.518 444H155.337L175.422 385.818H191.274L211.331 444H198.149L183.575 399.114H183.121L168.518 444ZM167.695 421.131H198.831V430.733H167.695V421.131ZM247.368 402.551C247.141 400.259 246.166 398.479 244.442 397.21C242.719 395.941 240.38 395.307 237.425 395.307C235.417 395.307 233.722 395.591 232.34 396.159C230.957 396.708 229.897 397.475 229.158 398.46C228.438 399.445 228.078 400.562 228.078 401.812C228.041 402.854 228.258 403.763 228.732 404.54C229.224 405.316 229.897 405.989 230.749 406.557C231.601 407.106 232.586 407.589 233.703 408.006C234.821 408.403 236.014 408.744 237.283 409.028L242.51 410.278C245.048 410.847 247.378 411.604 249.499 412.551C251.62 413.498 253.457 414.663 255.01 416.045C256.563 417.428 257.766 419.057 258.618 420.932C259.489 422.807 259.934 424.956 259.953 427.381C259.934 430.941 259.025 434.028 257.226 436.642C255.446 439.237 252.87 441.254 249.499 442.693C246.147 444.114 242.103 444.824 237.368 444.824C232.671 444.824 228.58 444.104 225.095 442.665C221.63 441.225 218.921 439.095 216.97 436.273C215.039 433.432 214.025 429.919 213.931 425.733H225.834C225.967 427.684 226.525 429.312 227.51 430.619C228.514 431.907 229.849 432.883 231.516 433.545C233.202 434.189 235.105 434.511 237.226 434.511C239.309 434.511 241.118 434.208 242.652 433.602C244.205 432.996 245.408 432.153 246.26 431.074C247.112 429.994 247.539 428.754 247.539 427.352C247.539 426.045 247.15 424.947 246.374 424.057C245.616 423.167 244.499 422.409 243.022 421.784C241.563 421.159 239.773 420.591 237.652 420.08L231.317 418.489C226.412 417.295 222.539 415.43 219.698 412.892C216.857 410.354 215.446 406.936 215.465 402.636C215.446 399.114 216.383 396.036 218.277 393.403C220.19 390.771 222.813 388.716 226.147 387.239C229.48 385.761 233.268 385.023 237.51 385.023C241.828 385.023 245.597 385.761 248.817 387.239C252.056 388.716 254.575 390.771 256.374 393.403C258.173 396.036 259.101 399.085 259.158 402.551H247.368ZM267.028 444V385.818H306.232V395.96H279.329V409.824H304.215V419.966H279.329V433.858H306.346V444H267.028ZM312.596 395.96V385.818H360.38V395.96H342.568V444H330.408V395.96H312.596ZM398.612 402.551C398.385 400.259 397.409 398.479 395.686 397.21C393.962 395.941 391.623 395.307 388.669 395.307C386.661 395.307 384.966 395.591 383.584 396.159C382.201 396.708 381.14 397.475 380.402 398.46C379.682 399.445 379.322 400.562 379.322 401.812C379.284 402.854 379.502 403.763 379.976 404.54C380.468 405.316 381.14 405.989 381.993 406.557C382.845 407.106 383.83 407.589 384.947 408.006C386.065 408.403 387.258 408.744 388.527 409.028L393.754 410.278C396.292 410.847 398.621 411.604 400.743 412.551C402.864 413.498 404.701 414.663 406.254 416.045C407.807 417.428 409.01 419.057 409.862 420.932C410.733 422.807 411.178 424.956 411.197 427.381C411.178 430.941 410.269 434.028 408.47 436.642C406.69 439.237 404.114 441.254 400.743 442.693C397.39 444.114 393.347 444.824 388.612 444.824C383.915 444.824 379.824 444.104 376.339 442.665C372.873 441.225 370.165 439.095 368.214 436.273C366.282 433.432 365.269 429.919 365.174 425.733H377.078C377.21 427.684 377.769 429.312 378.754 430.619C379.758 431.907 381.093 432.883 382.76 433.545C384.445 434.189 386.349 434.511 388.47 434.511C390.553 434.511 392.362 434.208 393.896 433.602C395.449 432.996 396.652 432.153 397.504 431.074C398.356 429.994 398.782 428.754 398.782 427.352C398.782 426.045 398.394 424.947 397.618 424.057C396.86 423.167 395.743 422.409 394.265 421.784C392.807 421.159 391.017 420.591 388.896 420.08L382.561 418.489C377.655 417.295 373.782 415.43 370.941 412.892C368.101 410.354 366.69 406.936 366.709 402.636C366.69 399.114 367.627 396.036 369.521 393.403C371.434 390.771 374.057 388.716 377.39 387.239C380.724 385.761 384.512 385.023 388.754 385.023C393.072 385.023 396.841 385.761 400.061 387.239C403.299 388.716 405.818 390.771 407.618 393.403C409.417 396.036 410.345 399.085 410.402 402.551H398.612Z" fill="white"/>
<path d="M10.5909 697.001H4L14.0426 667.91H21.9687L31.9971 697.001H25.4062L18.1193 674.558H17.892L10.5909 697.001ZM10.1789 685.566H25.7471V690.367H10.1789V685.566ZM35.4985 697.001V667.91H41.6491V691.93H54.1207V697.001H35.4985ZM76.3508 677.313C76.1519 676.622 75.8726 676.011 75.5127 675.481C75.1529 674.941 74.7126 674.487 74.1917 674.117C73.6804 673.739 73.0932 673.45 72.4304 673.251C71.7769 673.052 71.0525 672.953 70.2571 672.953C68.7703 672.953 67.4635 673.322 66.3366 674.061C65.2192 674.799 64.348 675.874 63.723 677.285C63.098 678.687 62.7855 680.401 62.7855 682.427C62.7855 684.454 63.0932 686.177 63.7088 687.598C64.3243 689.018 65.1955 690.102 66.3224 690.85C67.4493 691.589 68.7798 691.958 70.3139 691.958C71.7059 691.958 72.8944 691.712 73.8792 691.22C74.8735 690.718 75.6311 690.012 76.1519 689.103C76.6822 688.194 76.9474 687.119 76.9474 685.879L78.1974 686.063H70.6974V681.433H82.8707V685.098C82.8707 687.654 82.3309 689.851 81.2514 691.689C80.1718 693.516 78.6851 694.927 76.7911 695.921C74.8972 696.906 72.7286 697.399 70.2855 697.399C67.5582 697.399 65.1624 696.797 63.098 695.595C61.0336 694.383 59.4237 692.664 58.2684 690.439C57.1226 688.204 56.5497 685.552 56.5497 682.484C56.5497 680.126 56.8906 678.024 57.5724 676.177C58.2637 674.321 59.2296 672.749 60.4701 671.461C61.7107 670.173 63.1548 669.193 64.8025 668.521C66.4502 667.849 68.2353 667.512 70.1576 667.512C71.8054 667.512 73.3394 667.754 74.7599 668.237C76.1804 668.71 77.4398 669.383 78.5383 670.254C79.6463 671.125 80.5506 672.162 81.2514 673.365C81.9521 674.558 82.4019 675.874 82.6008 677.313H76.3508ZM114.223 682.456C114.223 685.628 113.622 688.327 112.419 690.552C111.226 692.778 109.597 694.477 107.533 695.652C105.478 696.816 103.167 697.399 100.601 697.399C98.0163 697.399 95.6962 696.812 93.6413 695.637C91.5864 694.463 89.9623 692.763 88.7691 690.538C87.576 688.313 86.9794 685.618 86.9794 682.456C86.9794 679.283 87.576 676.584 88.7691 674.359C89.9623 672.134 91.5864 670.438 93.6413 669.274C95.6962 668.099 98.0163 667.512 100.601 667.512C103.167 667.512 105.478 668.099 107.533 669.274C109.597 670.438 111.226 672.134 112.419 674.359C113.622 676.584 114.223 679.283 114.223 682.456ZM107.987 682.456C107.987 680.401 107.68 678.668 107.064 677.257C106.458 675.846 105.601 674.776 104.493 674.046C103.385 673.317 102.088 672.953 100.601 672.953C99.1148 672.953 97.8174 673.317 96.7095 674.046C95.6015 674.776 94.7398 675.846 94.1242 677.257C93.5182 678.668 93.2152 680.401 93.2152 682.456C93.2152 684.51 93.5182 686.243 94.1242 687.654C94.7398 689.065 95.6015 690.135 96.7095 690.865C97.8174 691.594 99.1148 691.958 100.601 691.958C102.088 691.958 103.385 691.594 104.493 690.865C105.601 690.135 106.458 689.065 107.064 687.654C107.68 686.243 107.987 684.51 107.987 682.456ZM118.779 697.001V667.91H130.257C132.454 667.91 134.329 668.303 135.882 669.089C137.444 669.866 138.633 670.969 139.447 672.399C140.271 673.819 140.683 675.491 140.683 677.413C140.683 679.345 140.266 681.007 139.433 682.399C138.599 683.781 137.392 684.842 135.811 685.581C134.239 686.319 132.335 686.689 130.1 686.689H122.416V681.745H129.106C130.28 681.745 131.256 681.584 132.032 681.262C132.809 680.94 133.386 680.457 133.765 679.813C134.153 679.17 134.348 678.369 134.348 677.413C134.348 676.447 134.153 675.633 133.765 674.97C133.386 674.307 132.804 673.805 132.018 673.464C131.242 673.114 130.261 672.939 129.078 672.939H124.93V697.001H118.779ZM134.49 683.762L141.72 697.001H134.93L127.856 683.762H134.49ZM151.18 667.91V697.001H145.029V667.91H151.18ZM155.132 672.981V667.91H179.024V672.981H170.118V697.001H164.039V672.981H155.132ZM182.959 697.001V667.91H189.11V679.913H201.595V667.91H207.732V697.001H201.595V684.984H189.11V697.001H182.959ZM212.803 667.91H220.388L228.399 687.456H228.74L236.752 667.91H244.337V697.001H238.371V678.066H238.13L230.601 696.859H226.539L219.01 677.995H218.769V697.001H212.803V667.91ZM276.631 667.91H282.782V686.802C282.782 688.923 282.275 690.779 281.262 692.37C280.258 693.961 278.852 695.202 277.043 696.092C275.234 696.973 273.127 697.413 270.722 697.413C268.307 697.413 266.195 696.973 264.387 696.092C262.578 695.202 261.172 693.961 260.168 692.37C259.164 690.779 258.662 688.923 258.662 686.802V667.91H264.813V686.277C264.813 687.385 265.054 688.369 265.537 689.231C266.03 690.093 266.721 690.77 267.611 691.262C268.501 691.755 269.538 692.001 270.722 692.001C271.915 692.001 272.952 691.755 273.833 691.262C274.723 690.77 275.409 690.093 275.892 689.231C276.385 688.369 276.631 687.385 276.631 686.277V667.91ZM303.623 676.277C303.509 675.131 303.022 674.241 302.16 673.606C301.298 672.972 300.129 672.654 298.652 672.654C297.648 672.654 296.8 672.796 296.109 673.081C295.418 673.355 294.887 673.739 294.518 674.231C294.158 674.724 293.978 675.282 293.978 675.907C293.959 676.428 294.068 676.883 294.305 677.271C294.551 677.659 294.887 677.995 295.313 678.279C295.74 678.554 296.232 678.796 296.791 679.004C297.349 679.203 297.946 679.373 298.581 679.515L301.194 680.14C302.463 680.424 303.628 680.803 304.688 681.277C305.749 681.75 306.668 682.332 307.444 683.024C308.221 683.715 308.822 684.529 309.248 685.467C309.684 686.404 309.906 687.479 309.916 688.691C309.906 690.472 309.452 692.015 308.552 693.322C307.662 694.619 306.374 695.628 304.688 696.348C303.012 697.058 300.991 697.413 298.623 697.413C296.275 697.413 294.229 697.053 292.487 696.333C290.754 695.614 289.4 694.548 288.424 693.137C287.458 691.717 286.952 689.96 286.904 687.867H292.856C292.922 688.843 293.202 689.657 293.694 690.311C294.196 690.955 294.864 691.442 295.697 691.774C296.54 692.096 297.492 692.257 298.552 692.257C299.594 692.257 300.498 692.105 301.265 691.802C302.042 691.499 302.643 691.078 303.069 690.538C303.495 689.998 303.708 689.378 303.708 688.677C303.708 688.024 303.514 687.474 303.126 687.029C302.747 686.584 302.188 686.206 301.45 685.893C300.721 685.581 299.826 685.296 298.765 685.041L295.598 684.245C293.145 683.649 291.208 682.716 289.788 681.447C288.367 680.178 287.662 678.469 287.671 676.319C287.662 674.558 288.131 673.019 289.078 671.703C290.034 670.386 291.346 669.359 293.012 668.62C294.679 667.882 296.573 667.512 298.694 667.512C300.853 667.512 302.738 667.882 304.348 668.62C305.967 669.359 307.226 670.386 308.126 671.703C309.026 673.019 309.49 674.544 309.518 676.277H303.623ZM332.117 697.427C330.11 697.427 328.377 697.067 326.919 696.348C325.46 695.628 324.338 694.653 323.552 693.421C322.776 692.181 322.387 690.798 322.387 689.274C322.387 688.137 322.615 687.129 323.069 686.248C323.524 685.367 324.158 684.558 324.973 683.819C325.787 683.071 326.734 682.328 327.813 681.589L333.453 677.882C334.182 677.418 334.717 676.93 335.058 676.419C335.399 675.898 335.569 675.334 335.569 674.728C335.569 674.151 335.337 673.616 334.873 673.123C334.409 672.631 333.751 672.389 332.899 672.399C332.331 672.399 331.838 672.527 331.421 672.782C331.005 673.028 330.678 673.355 330.441 673.762C330.214 674.16 330.1 674.605 330.1 675.098C330.1 675.704 330.271 676.319 330.612 676.944C330.953 677.569 331.407 678.232 331.975 678.933C332.544 679.624 333.164 680.372 333.836 681.177L347.629 697.001H341.322L329.816 684.189C329.059 683.327 328.301 682.427 327.544 681.49C326.795 680.543 326.17 679.539 325.669 678.478C325.167 677.408 324.916 676.248 324.916 674.998C324.916 673.587 325.242 672.318 325.896 671.191C326.559 670.064 327.487 669.174 328.68 668.521C329.873 667.858 331.265 667.527 332.856 667.527C334.409 667.527 335.749 667.844 336.876 668.478C338.012 669.103 338.884 669.937 339.49 670.978C340.105 672.01 340.413 673.147 340.413 674.387C340.413 675.76 340.072 677.006 339.39 678.123C338.718 679.231 337.771 680.225 336.549 681.106L330.612 685.382C329.807 685.969 329.21 686.57 328.822 687.186C328.443 687.792 328.254 688.374 328.254 688.933C328.254 689.624 328.424 690.244 328.765 690.794C329.106 691.343 329.589 691.778 330.214 692.1C330.839 692.413 331.573 692.569 332.416 692.569C333.438 692.569 334.447 692.337 335.441 691.873C336.445 691.4 337.354 690.732 338.169 689.87C338.992 688.999 339.651 687.967 340.143 686.774C340.635 685.581 340.882 684.26 340.882 682.811H345.896C345.896 684.591 345.702 686.196 345.313 687.626C344.925 689.046 344.385 690.287 343.694 691.348C343.003 692.399 342.212 693.26 341.322 693.933C341.038 694.113 340.763 694.283 340.498 694.444C340.233 694.605 339.958 694.776 339.674 694.956C338.595 695.827 337.387 696.456 336.052 696.845C334.726 697.233 333.415 697.427 332.117 697.427ZM377.49 667.91H383.641V686.802C383.641 688.923 383.134 690.779 382.121 692.37C381.117 693.961 379.711 695.202 377.902 696.092C376.094 696.973 373.987 697.413 371.581 697.413C369.166 697.413 367.055 696.973 365.246 696.092C363.437 695.202 362.031 693.961 361.027 692.37C360.023 690.779 359.522 688.923 359.522 686.802V667.91H365.672V686.277C365.672 687.385 365.914 688.369 366.397 689.231C366.889 690.093 367.58 690.77 368.47 691.262C369.361 691.755 370.398 692.001 371.581 692.001C372.774 692.001 373.811 691.755 374.692 691.262C375.582 690.77 376.269 690.093 376.752 689.231C377.244 688.369 377.49 687.385 377.49 686.277V667.91ZM388.701 697.001V667.91H394.852V680.737H395.235L405.704 667.91H413.076L402.281 680.936L413.204 697.001H405.846L397.877 685.041L394.852 688.734V697.001H388.701Z" fill="white"/>
</g>
<g filter="url(#filter1_d_1686_2403)">
<path d="M56.6214 4.38998C57.0704 3.00802 59.0255 3.00802 59.4745 4.38999L70.0594 36.967C70.2603 37.585 70.8362 38.0035 71.486 38.0035H105.739C107.193 38.0035 107.797 39.8629 106.621 40.717L78.9095 60.8507C78.3838 61.2327 78.1638 61.9097 78.3646 62.5277L88.9496 95.1048C89.3986 96.4867 87.8169 97.6359 86.6413 96.7818L58.9296 76.6481C58.4039 76.2661 57.692 76.2661 57.1663 76.6481L29.4546 96.7818C28.279 97.6359 26.6973 96.4867 27.1463 95.1048L37.7313 62.5277C37.9321 61.9097 37.7121 61.2327 37.1864 60.8507L9.47471 40.717C8.29914 39.8629 8.9033 38.0035 10.3564 38.0035H44.6099C45.2597 38.0035 45.8356 37.585 46.0365 36.967L56.6214 4.38998Z" fill="#FBBC04"/>
<path d="M166.621 4.38998C167.07 3.00802 169.025 3.00802 169.474 4.38999L180.059 36.967C180.26 37.585 180.836 38.0035 181.486 38.0035H215.739C217.193 38.0035 217.797 39.8629 216.621 40.717L188.909 60.8507C188.384 61.2327 188.164 61.9097 188.365 62.5277L198.949 95.1048C199.398 96.4867 197.817 97.6359 196.641 96.7818L168.93 76.6481C168.404 76.2661 167.692 76.2661 167.166 76.6481L139.455 96.7818C138.279 97.6359 136.697 96.4867 137.146 95.1048L147.731 62.5277C147.932 61.9097 147.712 61.2327 147.186 60.8507L119.475 40.717C118.299 39.8629 118.903 38.0035 120.356 38.0035H154.61C155.26 38.0035 155.836 37.585 156.036 36.967L166.621 4.38998Z" fill="#FBBC04"/>
<path d="M386.621 4.38998C387.07 3.00802 389.025 3.00802 389.474 4.38999L400.059 36.967C400.26 37.585 400.836 38.0035 401.486 38.0035H435.739C437.193 38.0035 437.797 39.8629 436.621 40.717L408.909 60.8507C408.384 61.2327 408.164 61.9097 408.365 62.5277L418.949 95.1048C419.398 96.4867 417.817 97.6359 416.641 96.7818L388.93 76.6481C388.404 76.2661 387.692 76.2661 387.166 76.6481L359.455 96.7818C358.279 97.6359 356.697 96.4867 357.146 95.1048L367.731 62.5277C367.932 61.9097 367.712 61.2327 367.186 60.8507L339.475 40.717C338.299 39.8629 338.903 38.0035 340.356 38.0035H374.61C375.26 38.0035 375.836 37.585 376.036 36.967L386.621 4.38998Z" fill="#FBBC04"/>
<path d="M276.621 4.38998C277.07 3.00802 279.025 3.00802 279.474 4.38999L290.059 36.967C290.26 37.585 290.836 38.0035 291.486 38.0035H325.739C327.193 38.0035 327.797 39.8629 326.621 40.717L298.909 60.8507C298.384 61.2327 298.164 61.9097 298.365 62.5277L308.949 95.1048C309.398 96.4867 307.817 97.6359 306.641 96.7818L278.93 76.6481C278.404 76.2661 277.692 76.2661 277.166 76.6481L249.455 96.7818C248.279 97.6359 246.697 96.4867 247.146 95.1048L257.731 62.5277C257.932 61.9097 257.712 61.2327 257.186 60.8507L229.475 40.717C228.299 39.8629 228.903 38.0035 230.356 38.0035H264.61C265.26 38.0035 265.836 37.585 266.036 36.967L276.621 4.38998Z" fill="#FBBC04"/>
<path d="M496.621 4.38998C497.07 3.00802 499.025 3.00802 499.474 4.38999L510.059 36.967C510.26 37.585 510.836 38.0035 511.486 38.0035H545.739C547.193 38.0035 547.797 39.8629 546.621 40.717L518.909 60.8507C518.384 61.2327 518.164 61.9097 518.365 62.5277L528.949 95.1048C529.398 96.4867 527.817 97.6359 526.641 96.7818L498.93 76.6481C498.404 76.2661 497.692 76.2661 497.166 76.6481L469.455 96.7818C468.279 97.6359 466.697 96.4867 467.146 95.1048L477.731 62.5277C477.932 61.9097 477.712 61.2327 477.186 60.8507L449.475 40.717C448.299 39.8629 448.903 38.0035 450.356 38.0035H484.61C485.26 38.0035 485.836 37.585 486.036 36.967L496.621 4.38998Z" fill="#FBBC04"/>
</g>
<defs>
<filter id="filter0_d_1686_2403" x="0" y="183.348" width="933.795" height="522.078" filterUnits="userSpaceOnUse" color-interpolation-filters="sRGB">
<feFlood flood-opacity="0" result="BackgroundImageFix"/>
<feColorMatrix in="SourceAlpha" type="matrix" values="0 0 0 0 0 0 0 0 0 0 0 0 0 0 0 0 0 0 127 0" result="hardAlpha"/>
<feOffset dy="4"/>
<feGaussianBlur stdDeviation="2"/>
<feComposite in2="hardAlpha" operator="out"/>
<feColorMatrix type="matrix" values="0 0 0 0 0 0 0 0 0 0 0 0 0 0 0 0 0 0 0.25 0"/>
<feBlend mode="normal" in2="BackgroundImageFix" result="effect1_dropShadow_1686_2403"/>
<feBlend mode="normal" in="SourceGraphic" in2="effect1_dropShadow_1686_2403" result="shape"/>
</filter>
<filter id="filter1_d_1686_2403" x="4.85352" y="3.35352" width="546.389" height="103.721" filterUnits="userSpaceOnUse" color-interpolation-filters="sRGB">
<feFlood flood-opacity="0" result="BackgroundImageFix"/>
<feColorMatrix in="SourceAlpha" type="matrix" values="0 0 0 0 0 0 0 0 0 0 0 0 0 0 0 0 0 0 127 0" result="hardAlpha"/>
<feOffset dy="6"/>
<feGaussianBlur stdDeviation="2"/>
<feComposite in2="hardAlpha" operator="out"/>
<feColorMatrix type="matrix" values="0 0 0 0 1 0 0 0 0 1 0 0 0 0 1 0 0 0 0.15 0"/>
<feBlend mode="normal" in2="BackgroundImageFix" result="effect1_dropShadow_1686_2403"/>
<feBlend mode="normal" in="SourceGraphic" in2="effect1_dropShadow_1686_2403" result="shape"/>
</filter>
</defs>
</svg>
